<?xml version="1.0" encoding="UTF-8" standalone="no"?>
<!DOCTYPE svg PUBLIC "-//W3C//DTD SVG 1.1//EN"
 "http://www.w3.org/Graphics/SVG/1.1/DTD/svg11.dtd">
<!-- Generated by graphviz version 14.1.2 (20260126.1125)
 -->
<!-- Title: repositories Pages: 1 -->
<svg width="387pt" height="214pt"
 viewBox="0.00 0.00 387.00 214.00" xmlns="http://www.w3.org/2000/svg" xmlns:xlink="http://www.w3.org/1999/xlink">
<g id="graph0" class="graph" transform="scale(1 1) rotate(0) translate(4 210)">
<title>repositories</title>
<polygon fill="white" stroke="none" points="-4,4 -4,-210 383.25,-210 383.25,4 -4,4"/>
<g id="clust1" class="cluster">
<title>cluster_0</title>
<polygon fill="lightgrey" stroke="lightgrey" points="8,-8 8,-198 371.25,-198 371.25,-8 8,-8"/>
<text xml:space="preserve" text-anchor="middle" x="189.62" y="-180.7" font-family="Times,serif" font-size="14.00">Packages server</text>
</g>
<g id="clust2" class="cluster">
<title>cluster_1</title>
<polygon fill="lightblue" stroke="lightblue" points="16,-16 16,-165 142.5,-165 142.5,-16 16,-16"/>
<text xml:space="preserve" text-anchor="middle" x="79.25" y="-147.7" font-family="Times,serif" font-size="14.00">testing</text>
<text xml:space="preserve" text-anchor="middle" x="79.25" y="-130.45" font-family="Times,serif" font-size="14.00"> repository</text>
</g>
<g id="clust3" class="cluster">
<title>cluster_2</title>
<polygon fill="lightblue" stroke="lightblue" points="236.75,-16 236.75,-165 363.25,-165 363.25,-16 236.75,-16"/>
<text xml:space="preserve" text-anchor="middle" x="300" y="-147.7" font-family="Times,serif" font-size="14.00">release</text>
<text xml:space="preserve" text-anchor="middle" x="300" y="-130.45" font-family="Times,serif" font-size="14.00"> repository</text>
</g>
<!-- zlib/1.3.1 -->
<g id="node1" class="node">
<title>zlib/1.3.1</title>
<polygon fill="lightskyblue" stroke="black" points="120.25,-60 38.25,-60 38.25,-24 120.25,-24 120.25,-60"/>
<text xml:space="preserve" text-anchor="middle" x="79.25" y="-37.33" font-family="Times,serif" font-size="14.00">zlib/1.3.1</text>
</g>
<!-- zlibpromoted -->
<g id="node3" class="node">
<title>zlibpromoted</title>
<polygon fill="lightskyblue" stroke="black" points="341,-60 259,-60 259,-24 341,-24 341,-60"/>
<text xml:space="preserve" text-anchor="middle" x="300" y="-37.33" font-family="Times,serif" font-size="14.00">zlib/1.3.1</text>
</g>
<!-- zlib/1.3.1&#45;&gt;zlibpromoted -->
<g id="edge1" class="edge">
<title>zlib/1.3.1&#45;&gt;zlibpromoted</title>
<path fill="none" stroke="black" d="M120.63,-42C156.47,-42 209.02,-42 247.8,-42"/>
<polygon fill="black" stroke="black" points="247.34,-45.5 257.34,-42 247.34,-38.5 247.34,-45.5"/>
</g>
<!-- openssl/3.2.2 -->
<g id="node2" class="node">
<title>openssl/3.2.2</title>
<polygon fill="lightskyblue" stroke="black" points="134.5,-114 24,-114 24,-78 134.5,-78 134.5,-114"/>
<text xml:space="preserve" text-anchor="middle" x="79.25" y="-91.33" font-family="Times,serif" font-size="14.00">openssl/3.2.2</text>
</g>
<!-- opensslpromoted -->
<g id="node4" class="node">
<title>opensslpromoted</title>
<polygon fill="lightskyblue" stroke="black" points="355.25,-114 244.75,-114 244.75,-78 355.25,-78 355.25,-114"/>
<text xml:space="preserve" text-anchor="middle" x="300" y="-91.33" font-family="Times,serif" font-size="14.00">openssl/3.2.2</text>
</g>
<!-- openssl/3.2.2&#45;&gt;opensslpromoted -->
<g id="edge2" class="edge">
<title>openssl/3.2.2&#45;&gt;opensslpromoted</title>
<path fill="none" stroke="black" d="M134.89,-96C164.64,-96 201.68,-96 233.03,-96"/>
<polygon fill="black" stroke="black" points="232.79,-99.5 242.79,-96 232.79,-92.5 232.79,-99.5"/>
<text xml:space="preserve" text-anchor="middle" x="189.62" y="-99.95" font-family="Times,serif" font-size="14.00">Promotion</text>
</g>
</g>
</svg>
