<?xml version="1.0" encoding="UTF-8" standalone="no"?>
<!DOCTYPE svg PUBLIC "-//W3C//DTD SVG 1.1//EN"
 "http://www.w3.org/Graphics/SVG/1.1/DTD/svg11.dtd">
<!-- Generated by graphviz version 14.1.2 (20260126.1125)
 -->
<!-- Title: repositories Pages: 1 -->
<svg width="859pt" height="359pt"
 viewBox="0.00 0.00 859.00 359.00" xmlns="http://www.w3.org/2000/svg" xmlns:xlink="http://www.w3.org/1999/xlink">
<g id="graph0" class="graph" transform="scale(1 1) rotate(0) translate(4 355)">
<title>repositories</title>
<polygon fill="white" stroke="none" points="-4,4 -4,-355 854.5,-355 854.5,4 -4,4"/>
<g id="clust1" class="cluster">
<title>cluster_0</title>
<polygon fill="lightgrey" stroke="lightgrey" points="8,-8 8,-343 842.5,-343 842.5,-8 8,-8"/>
<text xml:space="preserve" text-anchor="middle" x="425.25" y="-325.7" font-family="Times,serif" font-size="14.00">Packages server</text>
</g>
<g id="clust2" class="cluster">
<title>cluster_1</title>
<polygon fill="lightblue" stroke="lightblue" points="16,-76 16,-292 118.5,-292 118.5,-76 16,-76"/>
<text xml:space="preserve" text-anchor="middle" x="67.25" y="-274.7" font-family="Times,serif" font-size="14.00">packages</text>
<text xml:space="preserve" text-anchor="middle" x="67.25" y="-257.45" font-family="Times,serif" font-size="14.00"> repository</text>
</g>
<g id="clust3" class="cluster">
<title>cluster_2</title>
<polygon fill="lightblue" stroke="lightblue" points="138.5,-16 138.5,-171 555.75,-171 555.75,-16 138.5,-16"/>
<text xml:space="preserve" text-anchor="middle" x="347.12" y="-153.7" font-family="Times,serif" font-size="14.00">products</text>
<text xml:space="preserve" text-anchor="middle" x="347.12" y="-136.45" font-family="Times,serif" font-size="14.00"> repository</text>
</g>
<g id="clust4" class="cluster">
<title>cluster_3</title>
<polygon fill="lightblue" stroke="lightblue" points="292.5,-179 292.5,-310 834.5,-310 834.5,-179 292.5,-179"/>
<text xml:space="preserve" text-anchor="middle" x="563.5" y="-292.7" font-family="Times,serif" font-size="14.00">develop repository</text>
</g>
<!-- packages -->
<!-- products -->
<!-- packages&#45;&gt;products -->
<!-- ai/1.1.0\n (Release) -->
<g id="node2" class="node">
<title>ai/1.1.0\n (Release)</title>
<polygon fill="lightskyblue" stroke="black" points="110.5,-180.25 24,-180.25 24,-137.75 110.5,-137.75 110.5,-180.25"/>
<text xml:space="preserve" text-anchor="middle" x="67.25" y="-162.95" font-family="Times,serif" font-size="14.00">ai/1.1.0</text>
<text xml:space="preserve" text-anchor="middle" x="67.25" y="-145.7" font-family="Times,serif" font-size="14.00"> (Release)</text>
</g>
<!-- ai/1.1.0\n (Debug) -->
<g id="node3" class="node">
<title>ai/1.1.0\n (Debug)</title>
<polygon fill="lightskyblue" stroke="black" points="106,-241.25 28.5,-241.25 28.5,-198.75 106,-198.75 106,-241.25"/>
<text xml:space="preserve" text-anchor="middle" x="67.25" y="-223.95" font-family="Times,serif" font-size="14.00">ai/1.1.0</text>
<text xml:space="preserve" text-anchor="middle" x="67.25" y="-206.7" font-family="Times,serif" font-size="14.00"> (Debug)</text>
</g>
<!-- game/1.0 -->
<g id="node8" class="node">
<title>game/1.0</title>
<polygon fill="lightgreen" stroke="black" points="382.5,-223 300.5,-223 300.5,-187 382.5,-187 382.5,-223"/>
<text xml:space="preserve" text-anchor="middle" x="341.5" y="-200.32" font-family="Times,serif" font-size="14.00">game/1.0</text>
</g>
<!-- products&#45;&gt;game/1.0 -->
<!-- ai/promoted -->
<g id="node5" class="node">
<title>ai/promoted</title>
<polygon fill="lightskyblue" stroke="black" points="547.75,-66.25 435,-66.25 435,-23.75 547.75,-23.75 547.75,-66.25"/>
<text xml:space="preserve" text-anchor="middle" x="491.38" y="-48.95" font-family="Times,serif" font-size="14.00">ai/1.1.0</text>
<text xml:space="preserve" text-anchor="middle" x="491.38" y="-31.7" font-family="Times,serif" font-size="14.00">(new version)</text>
</g>
<!-- engine/promoted -->
<g id="node6" class="node">
<title>engine/promoted</title>
<polygon fill="lightskyblue" stroke="black" points="394.5,-66.25 288.5,-66.25 288.5,-23.75 394.5,-23.75 394.5,-66.25"/>
<text xml:space="preserve" text-anchor="middle" x="341.5" y="-48.95" font-family="Times,serif" font-size="14.00">engine/1.0</text>
<text xml:space="preserve" text-anchor="middle" x="341.5" y="-31.7" font-family="Times,serif" font-size="14.00">(new binary)</text>
</g>
<!-- engine/promoted&#45;&gt;ai/promoted -->
<g id="edge2" class="edge">
<title>engine/promoted&#45;&gt;ai/promoted</title>
<path fill="none" stroke="black" d="M394.64,-45C403.96,-45 413.79,-45 423.46,-45"/>
<polygon fill="black" stroke="black" points="423.18,-48.5 433.18,-45 423.18,-41.5 423.18,-48.5"/>
</g>
<!-- game/promoted -->
<g id="node7" class="node">
<title>game/promoted</title>
<polygon fill="lightgreen" stroke="black" points="252.5,-66.25 146.5,-66.25 146.5,-23.75 252.5,-23.75 252.5,-66.25"/>
<text xml:space="preserve" text-anchor="middle" x="199.5" y="-48.95" font-family="Times,serif" font-size="14.00">game/1.0</text>
<text xml:space="preserve" text-anchor="middle" x="199.5" y="-31.7" font-family="Times,serif" font-size="14.00">(new binary)</text>
</g>
<!-- game/promoted&#45;&gt;engine/promoted -->
<g id="edge1" class="edge">
<title>game/promoted&#45;&gt;engine/promoted</title>
<path fill="none" stroke="black" d="M252.63,-45C260.56,-45 268.81,-45 276.95,-45"/>
<polygon fill="black" stroke="black" points="276.81,-48.5 286.81,-45 276.81,-41.5 276.81,-48.5"/>
</g>
<!-- engine/1.0 -->
<g id="node9" class="node">
<title>engine/1.0</title>
<polygon fill="lightskyblue" stroke="black" points="536.88,-223 445.88,-223 445.88,-187 536.88,-187 536.88,-223"/>
<text xml:space="preserve" text-anchor="middle" x="491.38" y="-200.32" font-family="Times,serif" font-size="14.00">engine/1.0</text>
</g>
<!-- game/1.0&#45;&gt;engine/1.0 -->
<g id="edge3" class="edge">
<title>game/1.0&#45;&gt;engine/1.0</title>
<path fill="none" stroke="black" d="M382.91,-205C398.83,-205 417.39,-205 434.55,-205"/>
<polygon fill="black" stroke="black" points="434.08,-208.5 444.08,-205 434.08,-201.5 434.08,-208.5"/>
</g>
<!-- ai/1.0 -->
<g id="node10" class="node">
<title>ai/1.0</title>
<polygon fill="lightskyblue" stroke="black" points="668.38,-223 612.62,-223 612.62,-187 668.38,-187 668.38,-223"/>
<text xml:space="preserve" text-anchor="middle" x="640.5" y="-200.32" font-family="Times,serif" font-size="14.00">ai/1.0</text>
</g>
<!-- engine/1.0&#45;&gt;ai/1.0 -->
<g id="edge4" class="edge">
<title>engine/1.0&#45;&gt;ai/1.0</title>
<path fill="none" stroke="black" d="M537.32,-205C557.71,-205 581.57,-205 601.11,-205"/>
<polygon fill="black" stroke="black" points="600.84,-208.5 610.84,-205 600.84,-201.5 600.84,-208.5"/>
</g>
<!-- graphics/1.0 -->
<g id="node12" class="node">
<title>graphics/1.0</title>
<polygon fill="lightskyblue" stroke="black" points="692.75,-277 588.25,-277 588.25,-241 692.75,-241 692.75,-277"/>
<text xml:space="preserve" text-anchor="middle" x="640.5" y="-254.32" font-family="Times,serif" font-size="14.00">graphics/1.0</text>
</g>
<!-- engine/1.0&#45;&gt;graphics/1.0 -->
<g id="edge6" class="edge">
<title>engine/1.0&#45;&gt;graphics/1.0</title>
<path fill="none" stroke="black" d="M537.32,-221.5C550.38,-226.29 564.87,-231.61 578.74,-236.7"/>
<polygon fill="black" stroke="black" points="577.17,-239.85 587.76,-240.01 579.58,-233.28 577.17,-239.85"/>
</g>
<!-- mathlib/1.0 -->
<g id="node11" class="node">
<title>mathlib/1.0</title>
<polygon fill="lightskyblue" stroke="black" points="826.5,-250 728.75,-250 728.75,-214 826.5,-214 826.5,-250"/>
<text xml:space="preserve" text-anchor="middle" x="777.62" y="-227.32" font-family="Times,serif" font-size="14.00">mathlib/1.0</text>
</g>
<!-- ai/1.0&#45;&gt;mathlib/1.0 -->
<g id="edge5" class="edge">
<title>ai/1.0&#45;&gt;mathlib/1.0</title>
<path fill="none" stroke="black" d="M668.84,-210.46C682.83,-213.26 700.42,-216.77 717.31,-220.15"/>
<polygon fill="black" stroke="black" points="716.29,-223.51 726.78,-222.04 717.66,-216.65 716.29,-223.51"/>
</g>
<!-- graphics/1.0&#45;&gt;mathlib/1.0 -->
<g id="edge7" class="edge">
<title>graphics/1.0&#45;&gt;mathlib/1.0</title>
<path fill="none" stroke="black" d="M692.97,-248.72C700.88,-247.14 709.1,-245.49 717.16,-243.88"/>
<polygon fill="black" stroke="black" points="717.81,-247.32 726.93,-241.93 716.43,-240.46 717.81,-247.32"/>
</g>
<!-- mapviewer/1.0 -->
<g id="node13" class="node">
<title>mapviewer/1.0</title>
<polygon fill="lightgreen" stroke="black" points="552.25,-277 430.5,-277 430.5,-241 552.25,-241 552.25,-277"/>
<text xml:space="preserve" text-anchor="middle" x="491.38" y="-254.32" font-family="Times,serif" font-size="14.00">mapviewer/1.0</text>
</g>
<!-- mapviewer/1.0&#45;&gt;graphics/1.0 -->
<g id="edge8" class="edge">
<title>mapviewer/1.0&#45;&gt;graphics/1.0</title>
<path fill="none" stroke="black" d="M552.64,-259C560.53,-259 568.63,-259 576.57,-259"/>
<polygon fill="black" stroke="black" points="576.51,-262.5 586.51,-259 576.51,-255.5 576.51,-262.5"/>
</g>
</g>
</svg>
