<?xml version="1.0" encoding="UTF-8" standalone="no"?>
<!DOCTYPE svg PUBLIC "-//W3C//DTD SVG 1.1//EN"
 "http://www.w3.org/Graphics/SVG/1.1/DTD/svg11.dtd">
<!-- Generated by graphviz version 14.1.2 (20260126.1125)
 -->
<!-- Title: conflict Pages: 1 -->
<svg width="206pt" height="188pt"
 viewBox="0.00 0.00 206.00 188.00" xmlns="http://www.w3.org/2000/svg" xmlns:xlink="http://www.w3.org/1999/xlink">
<g id="graph0" class="graph" transform="scale(1 1) rotate(0) translate(4 184)">
<title>conflict</title>
<polygon fill="white" stroke="none" points="-4,4 -4,-184 202.25,-184 202.25,4 -4,4"/>
<!-- game/1.0 -->
<g id="node1" class="node">
<title>game/1.0</title>
<polygon fill="lightskyblue" stroke="black" points="139.12,-36 57.12,-36 57.12,0 139.12,0 139.12,-36"/>
<text xml:space="preserve" text-anchor="middle" x="98.12" y="-13.32" font-family="Times,serif" font-size="14.00">game/1.0</text>
</g>
<!-- engine/1.0 -->
<g id="node2" class="node">
<title>engine/1.0</title>
<polygon fill="lightskyblue" stroke="black" points="91.62,-108 0.62,-108 0.62,-72 91.62,-72 91.62,-108"/>
<text xml:space="preserve" text-anchor="middle" x="46.12" y="-85.33" font-family="Times,serif" font-size="14.00">engine/1.0</text>
</g>
<!-- game/1.0&#45;&gt;engine/1.0 -->
<g id="edge1" class="edge">
<title>game/1.0&#45;&gt;engine/1.0</title>
<path fill="none" stroke="black" d="M85.27,-36.3C79.35,-44.27 72.2,-53.9 65.64,-62.74"/>
<polygon fill="black" stroke="black" points="62.89,-60.57 59.73,-70.68 68.51,-64.74 62.89,-60.57"/>
</g>
<!-- intro/1.0 -->
<g id="node4" class="node">
<title>intro/1.0</title>
<polygon fill="lightskyblue" stroke="black" points="189.88,-108 112.38,-108 112.38,-72 189.88,-72 189.88,-108"/>
<text xml:space="preserve" text-anchor="middle" x="151.12" y="-85.33" font-family="Times,serif" font-size="14.00">intro/1.0</text>
</g>
<!-- game/1.0&#45;&gt;intro/1.0 -->
<g id="edge3" class="edge">
<title>game/1.0&#45;&gt;intro/1.0</title>
<path fill="none" stroke="black" d="M111.23,-36.3C117.26,-44.27 124.55,-53.9 131.24,-62.74"/>
<polygon fill="black" stroke="black" points="128.43,-64.83 137.26,-70.69 134.01,-60.6 128.43,-64.83"/>
</g>
<!-- matrix/1.0 -->
<g id="node3" class="node">
<title>matrix/1.0</title>
<polygon fill="orange" stroke="black" points="90.25,-180 0,-180 0,-144 90.25,-144 90.25,-180"/>
<text xml:space="preserve" text-anchor="middle" x="45.12" y="-157.32" font-family="Times,serif" font-size="14.00">matrix/1.0</text>
</g>
<!-- engine/1.0&#45;&gt;matrix/1.0 -->
<g id="edge2" class="edge">
<title>engine/1.0&#45;&gt;matrix/1.0</title>
<path fill="none" stroke="black" d="M45.88,-108.3C45.77,-115.59 45.65,-124.27 45.53,-132.46"/>
<polygon fill="black" stroke="black" points="42.03,-132.33 45.39,-142.38 49.03,-132.43 42.03,-132.33"/>
</g>
<!-- matrix/1.1 -->
<g id="node5" class="node">
<title>matrix/1.1</title>
<polygon fill="orange" stroke="black" points="198.25,-180 108,-180 108,-144 198.25,-144 198.25,-180"/>
<text xml:space="preserve" text-anchor="middle" x="153.12" y="-157.32" font-family="Times,serif" font-size="14.00">matrix/1.1</text>
</g>
<!-- intro/1.0&#45;&gt;matrix/1.1 -->
<g id="edge4" class="edge">
<title>intro/1.0&#45;&gt;matrix/1.1</title>
<path fill="none" stroke="black" d="M151.62,-108.3C151.83,-115.59 152.08,-124.27 152.31,-132.46"/>
<polygon fill="black" stroke="black" points="148.81,-132.49 152.59,-142.38 155.81,-132.29 148.81,-132.49"/>
</g>
</g>
</svg>
