<?xml version="1.0" encoding="UTF-8" standalone="no"?>
<!DOCTYPE svg PUBLIC "-//W3C//DTD SVG 1.1//EN"
 "http://www.w3.org/Graphics/SVG/1.1/DTD/svg11.dtd">
<!-- Generated by graphviz version 14.1.2 (20260126.1125)
 -->
<!-- Title: G Pages: 1 -->
<svg width="294pt" height="206pt"
 viewBox="0.00 0.00 294.00 206.00" xmlns="http://www.w3.org/2000/svg" xmlns:xlink="http://www.w3.org/1999/xlink">
<g id="graph0" class="graph" transform="scale(1 1) rotate(0) translate(4 202.25)">
<title>G</title>
<polygon fill="white" stroke="none" points="-4,4 -4,-202.25 289.75,-202.25 289.75,4 -4,4"/>
<!-- app -->
<g id="node1" class="node">
<title>app</title>
<polygon fill="lightskyblue" stroke="black" points="157.25,-198.25 103.25,-198.25 103.25,-162.25 157.25,-162.25 157.25,-198.25"/>
<text xml:space="preserve" text-anchor="middle" x="130.25" y="-175.57" font-family="Times,serif" font-size="14.00">app</text>
</g>
<!-- libpng/1.6.40 -->
<g id="node2" class="node">
<title>libpng/1.6.40</title>
<polygon fill="lightskyblue" stroke="black" points="110.5,-125.25 0,-125.25 0,-89.25 110.5,-89.25 110.5,-125.25"/>
<text xml:space="preserve" text-anchor="middle" x="55.25" y="-102.58" font-family="Times,serif" font-size="14.00">libpng/1.6.40</text>
</g>
<!-- app&#45;&gt;libpng/1.6.40 -->
<g id="edge1" class="edge">
<title>app&#45;&gt;libpng/1.6.40</title>
<path fill="none" stroke="black" d="M112.09,-162.06C102.95,-153.41 91.69,-142.75 81.61,-133.21"/>
<polygon fill="black" stroke="black" points="84.27,-130.9 74.6,-126.57 79.45,-135.98 84.27,-130.9"/>
</g>
<!-- libmysqlclient/8.1.0 -->
<g id="node3" class="node">
<title>libmysqlclient/8.1.0</title>
<polygon fill="lightskyblue" stroke="black" points="285.75,-125.25 128.75,-125.25 128.75,-89.25 285.75,-89.25 285.75,-125.25"/>
<text xml:space="preserve" text-anchor="middle" x="207.25" y="-102.58" font-family="Times,serif" font-size="14.00">libmysqlclient/8.1.0</text>
</g>
<!-- app&#45;&gt;libmysqlclient/8.1.0 -->
<g id="edge2" class="edge">
<title>app&#45;&gt;libmysqlclient/8.1.0</title>
<path fill="none" stroke="black" d="M148.89,-162.06C158.28,-153.41 169.84,-142.75 180.18,-133.21"/>
<polygon fill="black" stroke="black" points="182.42,-135.9 187.4,-126.55 177.68,-130.76 182.42,-135.9"/>
</g>
<!-- zlib/1.2.13 -->
<g id="node4" class="node">
<title>zlib/1.2.13</title>
<polygon fill="lightskyblue" stroke="black" points="176.75,-36 85.75,-36 85.75,0 176.75,0 176.75,-36"/>
<text xml:space="preserve" text-anchor="middle" x="131.25" y="-13.32" font-family="Times,serif" font-size="14.00">zlib/1.2.13</text>
</g>
<!-- libpng/1.6.40&#45;&gt;zlib/1.2.13 -->
<g id="edge3" class="edge">
<title>libpng/1.6.40&#45;&gt;zlib/1.2.13</title>
<path fill="none" stroke="black" d="M69.56,-89.21C78.23,-78.95 89.55,-65.65 99.75,-54 102.36,-51.02 105.11,-47.91 107.86,-44.83"/>
<polygon fill="black" stroke="black" points="110.37,-47.27 114.44,-37.49 105.16,-42.6 110.37,-47.27"/>
<text xml:space="preserve" text-anchor="middle" x="135" y="-57.95" font-family="Times,serif" font-size="14.00">[&gt;1.2 &lt;2]</text>
</g>
<!-- libmysqlclient/8.1.0&#45;&gt;zlib/1.2.13 -->
<g id="edge4" class="edge">
<title>libmysqlclient/8.1.0&#45;&gt;zlib/1.2.13</title>
<path fill="none" stroke="black" d="M196.49,-89.06C189.54,-78.5 180.01,-64.95 170.25,-54 167.27,-50.66 164,-47.31 160.65,-44.07"/>
<polygon fill="black" stroke="black" points="163.14,-41.6 153.42,-37.38 158.38,-46.74 163.14,-41.6"/>
<text xml:space="preserve" text-anchor="middle" x="218.74" y="-57.95" font-family="Times,serif" font-size="14.00">[&gt;1.2 &lt;2]</text>
</g>
</g>
</svg>
