<?xml version="1.0" encoding="UTF-8" standalone="no"?>
<!DOCTYPE svg PUBLIC "-//W3C//DTD SVG 1.1//EN"
 "http://www.w3.org/Graphics/SVG/1.1/DTD/svg11.dtd">
<!-- Generated by graphviz version 14.1.2 (20260126.1125)
 -->
<!-- Title: repositories Pages: 1 -->
<svg width="283pt" height="214pt"
 viewBox="0.00 0.00 283.00 214.00" xmlns="http://www.w3.org/2000/svg" xmlns:xlink="http://www.w3.org/1999/xlink">
<g id="graph0" class="graph" transform="scale(1 1) rotate(0) translate(4 210)">
<title>repositories</title>
<polygon fill="white" stroke="none" points="-4,4 -4,-210 278.88,-210 278.88,4 -4,4"/>
<g id="clust1" class="cluster">
<title>cluster_0</title>
<polygon fill="lightgrey" stroke="lightgrey" points="8,-8 8,-198 272.5,-198 272.5,-8 8,-8"/>
<text xml:space="preserve" text-anchor="middle" x="140.25" y="-180.7" font-family="Times,serif" font-size="14.00">Packages server</text>
</g>
<g id="clust2" class="cluster">
<title>cluster_1</title>
<polygon fill="lightblue" stroke="lightblue" points="16,-16 16,-165 142.5,-165 142.5,-16 16,-16"/>
<text xml:space="preserve" text-anchor="middle" x="79.25" y="-147.7" font-family="Times,serif" font-size="14.00">testing</text>
<text xml:space="preserve" text-anchor="middle" x="79.25" y="-130.45" font-family="Times,serif" font-size="14.00"> repository</text>
</g>
<g id="clust3" class="cluster">
<title>cluster_2</title>
<polygon fill="lightblue" stroke="lightblue" points="170.5,-16 170.5,-111 264.5,-111 264.5,-16 170.5,-16"/>
<text xml:space="preserve" text-anchor="middle" x="217.5" y="-93.7" font-family="Times,serif" font-size="14.00">release</text>
<text xml:space="preserve" text-anchor="middle" x="217.5" y="-76.45" font-family="Times,serif" font-size="14.00"> repository</text>
</g>
<!-- zlib/1.3.1 -->
<g id="node1" class="node">
<title>zlib/1.3.1</title>
<polygon fill="lightskyblue" stroke="black" points="120.25,-60 38.25,-60 38.25,-24 120.25,-24 120.25,-60"/>
<text xml:space="preserve" text-anchor="middle" x="79.25" y="-37.33" font-family="Times,serif" font-size="14.00">zlib/1.3.1</text>
</g>
<!-- release -->
<!-- zlib/1.3.1&#45;&gt;release -->
<!-- openssl/3.2.2 -->
<g id="node2" class="node">
<title>openssl/3.2.2</title>
<polygon fill="lightskyblue" stroke="black" points="134.5,-114 24,-114 24,-78 134.5,-78 134.5,-114"/>
<text xml:space="preserve" text-anchor="middle" x="79.25" y="-91.33" font-family="Times,serif" font-size="14.00">openssl/3.2.2</text>
</g>
</g>
</svg>
