<?xml version="1.0" encoding="UTF-8" standalone="no"?>
<!DOCTYPE svg PUBLIC "-//W3C//DTD SVG 1.1//EN"
 "http://www.w3.org/Graphics/SVG/1.1/DTD/svg11.dtd">
<!-- Generated by graphviz version 14.1.2 (20260126.1125)
 -->
<!-- Pages: 1 -->
<svg width="157pt" height="188pt"
 viewBox="0.00 0.00 157.00 188.00" xmlns="http://www.w3.org/2000/svg" xmlns:xlink="http://www.w3.org/1999/xlink">
<g id="graph0" class="graph" transform="scale(1 1) rotate(0) translate(4 184)">
<polygon fill="white" stroke="none" points="-4,4 -4,-184 152.71,-184 152.71,4 -4,4"/>
<!-- cli -->
<g id="node1" class="node">
<title>cli</title>
<ellipse fill="none" stroke="black" cx="74.36" cy="-162" rx="27" ry="18"/>
<text xml:space="preserve" text-anchor="middle" x="74.36" y="-157.32" font-family="Times,serif" font-size="14.00">cli</text>
</g>
<!-- binutils/2.38 -->
<g id="node2" class="node">
<title>binutils/2.38</title>
<ellipse fill="none" stroke="black" cx="74.36" cy="-90" rx="74.36" ry="18"/>
<text xml:space="preserve" text-anchor="middle" x="74.36" y="-85.33" font-family="Times,serif" font-size="14.00">binutils/2.38</text>
</g>
<!-- cli&#45;&gt;binutils/2.38 -->
<g id="edge1" class="edge">
<title>cli&#45;&gt;binutils/2.38</title>
<path fill="none" stroke="black" d="M74.36,-143.7C74.36,-136.41 74.36,-127.73 74.36,-119.54"/>
<polygon fill="black" stroke="black" points="77.86,-119.62 74.36,-109.62 70.86,-119.62 77.86,-119.62"/>
</g>
<!-- zlib/1.2.13 -->
<g id="node3" class="node">
<title>zlib/1.2.13</title>
<ellipse fill="none" stroke="black" cx="74.36" cy="-18" rx="63.83" ry="18"/>
<text xml:space="preserve" text-anchor="middle" x="74.36" y="-13.32" font-family="Times,serif" font-size="14.00">zlib/1.2.13</text>
</g>
<!-- binutils/2.38&#45;&gt;zlib/1.2.13 -->
<g id="edge2" class="edge">
<title>binutils/2.38&#45;&gt;zlib/1.2.13</title>
<path fill="none" stroke="black" d="M74.36,-71.7C74.36,-64.41 74.36,-55.73 74.36,-47.54"/>
<polygon fill="black" stroke="black" points="77.86,-47.62 74.36,-37.62 70.86,-47.62 77.86,-47.62"/>
</g>
</g>
</svg>
