<?xml version="1.0" encoding="UTF-8" standalone="no"?>
<!DOCTYPE svg PUBLIC "-//W3C//DTD SVG 1.1//EN"
 "http://www.w3.org/Graphics/SVG/1.1/DTD/svg11.dtd">
<!-- Generated by graphviz version 14.1.2 (20260126.1125)
 -->
<!-- Title: context_diagram Pages: 1 -->
<svg width="494pt" height="280pt"
 viewBox="0.00 0.00 494.00 280.00" xmlns="http://www.w3.org/2000/svg" xmlns:xlink="http://www.w3.org/1999/xlink">
<g id="graph0" class="graph" transform="scale(1 1) rotate(0) translate(4 276.25)">
<title>context_diagram</title>
<polygon fill="white" stroke="none" points="-4,4 -4,-276.25 490,-276.25 490,4 -4,4"/>
<g id="clust1" class="cluster">
<title>cluster_build_context</title>
<polygon fill="lightblue" stroke="lightblue" points="8,-8 8,-85.25 399,-85.25 399,-8 8,-8"/>
<text xml:space="preserve" text-anchor="middle" x="61.38" y="-67.95" font-family="Helvetica,sans-Serif" font-size="14.00">build context</text>
</g>
<g id="clust2" class="cluster">
<title>cluster_build_profile</title>
<polygon fill="none" stroke="white" points="70,-93.25 70,-264.25 270,-264.25 270,-93.25 70,-93.25"/>
<text xml:space="preserve" text-anchor="middle" x="119.25" y="-246.95" font-family="Helvetica,sans-Serif" font-size="14.00">build profile</text>
</g>
<g id="clust3" class="cluster">
<title>cluster_host_profile</title>
<polygon fill="none" stroke="white" points="278,-93.25 278,-264.25 478,-264.25 478,-93.25 278,-93.25"/>
<text xml:space="preserve" text-anchor="middle" x="325" y="-246.95" font-family="Helvetica,sans-Serif" font-size="14.00">host profile</text>
</g>
<!-- arm&#45;toolchain/13.2 -->
<g id="node1" class="node">
<title>arm&#45;toolchain/13.2</title>
<polygon fill="lightblue" stroke="lightblue" points="163.62,-52 16.38,-52 16.38,-16 163.62,-16 163.62,-52"/>
<text xml:space="preserve" text-anchor="middle" x="90" y="-29.32" font-family="Helvetica,sans-Serif" font-size="14.00">arm&#45;toolchain/13.2</text>
</g>
<!-- settings -->
<g id="node2" class="node">
<title>settings</title>
<polygon fill="lightblue" stroke="black" points="252.75,-52 181.25,-52 181.25,-16 252.75,-16 252.75,-52"/>
<text xml:space="preserve" text-anchor="middle" x="217" y="-29.32" font-family="Helvetica,sans-Serif" font-size="14.00">settings</text>
</g>
<!-- settings_target -->
<g id="node3" class="node">
<title>settings_target</title>
<polygon fill="pink" stroke="black" points="390.75,-52 271.25,-52 271.25,-16 390.75,-16 390.75,-52"/>
<text xml:space="preserve" text-anchor="middle" x="331" y="-29.32" font-family="Helvetica,sans-Serif" font-size="14.00">settings_target</text>
</g>
<!-- build_profile -->
<g id="node4" class="node">
<title>build_profile</title>
<polygon fill="lightblue" stroke="lightblue" points="78.38,-101.75 78.38,-230.5 261.62,-230.5 261.62,-101.75 78.38,-101.75"/>
<text xml:space="preserve" text-anchor="start" x="86.38" y="-213.2" font-family="Helvetica,sans-Serif" font-size="14.00">[settings]</text>
<text xml:space="preserve" text-anchor="start" x="86.38" y="-195.95" font-family="Helvetica,sans-Serif" font-size="14.00">arch=x86_64</text>
<text xml:space="preserve" text-anchor="start" x="86.38" y="-178.7" font-family="Helvetica,sans-Serif" font-size="14.00">build_type=Release</text>
<text xml:space="preserve" text-anchor="start" x="86.38" y="-161.45" font-family="Helvetica,sans-Serif" font-size="14.00">compiler=gcc</text>
<text xml:space="preserve" text-anchor="start" x="86.38" y="-144.2" font-family="Helvetica,sans-Serif" font-size="14.00">compiler.cppstd=gnu14</text>
<text xml:space="preserve" text-anchor="start" x="86.38" y="-126.95" font-family="Helvetica,sans-Serif" font-size="14.00">compiler.version=7</text>
<text xml:space="preserve" text-anchor="start" x="86.38" y="-109.7" font-family="Helvetica,sans-Serif" font-size="14.00">os=Linux</text>
</g>
<!-- build_profile&#45;&gt;settings -->
<g id="edge1" class="edge">
<title>build_profile&#45;&gt;settings</title>
<path fill="none" stroke="black" d="M192.95,-101.59C197.84,-88.04 202.77,-74.4 206.88,-63.03"/>
<polygon fill="black" stroke="black" points="210.06,-64.52 210.17,-53.92 203.48,-62.14 210.06,-64.52"/>
</g>
<!-- host_profile -->
<g id="node5" class="node">
<title>host_profile</title>
<polygon fill="pink" stroke="pink" points="286.38,-101.75 286.38,-230.5 469.62,-230.5 469.62,-101.75 286.38,-101.75"/>
<text xml:space="preserve" text-anchor="start" x="294.38" y="-213.2" font-family="Helvetica,sans-Serif" font-size="14.00">[settings]</text>
<text xml:space="preserve" text-anchor="start" x="294.38" y="-195.95" font-family="Helvetica,sans-Serif" font-size="14.00">arch=armv8</text>
<text xml:space="preserve" text-anchor="start" x="294.38" y="-178.7" font-family="Helvetica,sans-Serif" font-size="14.00">build_type=Release</text>
<text xml:space="preserve" text-anchor="start" x="294.38" y="-161.45" font-family="Helvetica,sans-Serif" font-size="14.00">compiler=gcc</text>
<text xml:space="preserve" text-anchor="start" x="294.38" y="-144.2" font-family="Helvetica,sans-Serif" font-size="14.00">compiler.cppstd=gnu14</text>
<text xml:space="preserve" text-anchor="start" x="294.38" y="-126.95" font-family="Helvetica,sans-Serif" font-size="14.00">compiler.version=13</text>
<text xml:space="preserve" text-anchor="start" x="294.38" y="-109.7" font-family="Helvetica,sans-Serif" font-size="14.00">os=Linux</text>
</g>
<!-- host_profile&#45;&gt;settings_target -->
<g id="edge2" class="edge">
<title>host_profile&#45;&gt;settings_target</title>
<path fill="none" stroke="black" d="M355.05,-101.59C350.16,-88.04 345.23,-74.4 341.12,-63.03"/>
<polygon fill="black" stroke="black" points="344.52,-62.14 337.83,-53.92 337.94,-64.52 344.52,-62.14"/>
</g>
</g>
</svg>
