<?xml version="1.0" encoding="UTF-8" standalone="no"?>
<!DOCTYPE svg PUBLIC "-//W3C//DTD SVG 1.1//EN"
 "http://www.w3.org/Graphics/SVG/1.1/DTD/svg11.dtd">
<!-- Generated by graphviz version 14.1.2 (20260126.1125)
 -->
<!-- Title: conflict Pages: 1 -->
<svg width="389pt" height="188pt"
 viewBox="0.00 0.00 389.00 188.00" xmlns="http://www.w3.org/2000/svg" xmlns:xlink="http://www.w3.org/1999/xlink">
<g id="graph0" class="graph" transform="scale(1 1) rotate(0) translate(4 184)">
<title>conflict</title>
<polygon fill="white" stroke="none" points="-4,4 -4,-184 384.62,-184 384.62,4 -4,4"/>
<!-- game/1.0 -->
<g id="node1" class="node">
<title>game/1.0</title>
<polygon fill="lightskyblue" stroke="black" points="160.5,-36 78.5,-36 78.5,0 160.5,0 160.5,-36"/>
<text xml:space="preserve" text-anchor="middle" x="119.5" y="-13.32" font-family="Times,serif" font-size="14.00">game/1.0</text>
</g>
<!-- engine/1.0 -->
<g id="node2" class="node">
<title>engine/1.0</title>
<polygon fill="lightskyblue" stroke="black" points="91,-108 0,-108 0,-72 91,-72 91,-108"/>
<text xml:space="preserve" text-anchor="middle" x="45.5" y="-85.33" font-family="Times,serif" font-size="14.00">engine/1.0</text>
</g>
<!-- game/1.0&#45;&gt;engine/1.0 -->
<g id="edge1" class="edge">
<title>game/1.0&#45;&gt;engine/1.0</title>
<path fill="none" stroke="black" d="M101.21,-36.3C92.4,-44.63 81.68,-54.78 72,-63.93"/>
<polygon fill="black" stroke="black" points="69.8,-61.2 64.94,-70.61 74.61,-66.28 69.8,-61.2"/>
</g>
<!-- matrix/1.2 -->
<g id="node3" class="node">
<title>matrix/1.2</title>
<polygon fill="lightskyblue" stroke="black" points="164.62,-180 74.38,-180 74.38,-144 164.62,-144 164.62,-180"/>
<text xml:space="preserve" text-anchor="middle" x="119.5" y="-157.32" font-family="Times,serif" font-size="14.00">matrix/1.2</text>
</g>
<!-- game/1.0&#45;&gt;matrix/1.2 -->
<g id="edge5" class="edge">
<title>game/1.0&#45;&gt;matrix/1.2</title>
<path fill="none" stroke="black" d="M119.5,-36.41C119.5,-60.39 119.5,-103.86 119.5,-132.58"/>
<polygon fill="black" stroke="black" points="116,-132.38 119.5,-142.38 123,-132.38 116,-132.38"/>
</g>
<!-- intro/1.0 -->
<g id="node4" class="node">
<title>intro/1.0</title>
<polygon fill="lightskyblue" stroke="black" points="225.25,-108 147.75,-108 147.75,-72 225.25,-72 225.25,-108"/>
<text xml:space="preserve" text-anchor="middle" x="186.5" y="-85.33" font-family="Times,serif" font-size="14.00">intro/1.0</text>
</g>
<!-- game/1.0&#45;&gt;intro/1.0 -->
<g id="edge3" class="edge">
<title>game/1.0&#45;&gt;intro/1.0</title>
<path fill="none" stroke="black" d="M136.06,-36.3C143.93,-44.53 153.49,-54.52 162.17,-63.58"/>
<polygon fill="black" stroke="black" points="159.64,-66 169.08,-70.8 164.7,-61.16 159.64,-66"/>
</g>
<!-- engine/1.0&#45;&gt;matrix/1.2 -->
<g id="edge2" class="edge">
<title>engine/1.0&#45;&gt;matrix/1.2</title>
<path fill="none" stroke="black" d="M63.79,-108.3C72.6,-116.63 83.32,-126.78 93,-135.93"/>
<polygon fill="black" stroke="black" points="90.39,-138.28 100.06,-142.61 95.2,-133.2 90.39,-138.28"/>
</g>
<!-- matrix/1.0 -->
<g id="node5" class="node">
<title>matrix/1.0</title>
<polygon fill="lightskyblue" stroke="black" points="272.62,-180 182.38,-180 182.38,-144 272.62,-144 272.62,-180"/>
<text xml:space="preserve" text-anchor="middle" x="227.5" y="-157.32" font-family="Times,serif" font-size="14.00">matrix/1.0</text>
</g>
<!-- matrix/1.2&#45;&gt;matrix/1.0 -->
<!-- intro/1.0&#45;&gt;matrix/1.2 -->
<g id="edge4" class="edge">
<title>intro/1.0&#45;&gt;matrix/1.2</title>
<path fill="none" stroke="black" d="M169.94,-108.3C162.07,-116.53 152.51,-126.52 143.83,-135.58"/>
<polygon fill="black" stroke="black" points="141.3,-133.16 136.92,-142.8 146.36,-138 141.3,-133.16"/>
</g>
<!-- matrix/1.1 -->
<g id="node6" class="node">
<title>matrix/1.1</title>
<polygon fill="lightskyblue" stroke="black" points="380.62,-180 290.38,-180 290.38,-144 380.62,-144 380.62,-180"/>
<text xml:space="preserve" text-anchor="middle" x="335.5" y="-157.32" font-family="Times,serif" font-size="14.00">matrix/1.1</text>
</g>
<!-- matrix/1.0&#45;&gt;matrix/1.1 -->
</g>
</svg>
