<?xml version="1.0" encoding="UTF-8" standalone="no"?>
<!DOCTYPE svg PUBLIC "-//W3C//DTD SVG 1.1//EN"
 "http://www.w3.org/Graphics/SVG/1.1/DTD/svg11.dtd">
<!-- Generated by graphviz version 14.1.2 (20260126.1125)
 -->
<!-- Title: repositories Pages: 1 -->
<svg width="803pt" height="196pt"
 viewBox="0.00 0.00 803.00 196.00" xmlns="http://www.w3.org/2000/svg" xmlns:xlink="http://www.w3.org/1999/xlink">
<g id="graph0" class="graph" transform="scale(1 1) rotate(0) translate(4 192)">
<title>repositories</title>
<polygon fill="white" stroke="none" points="-4,4 -4,-192 799,-192 799,4 -4,4"/>
<g id="clust1" class="cluster">
<title>cluster_0</title>
<polygon fill="lightgrey" stroke="lightgrey" points="8,-8 8,-180 787,-180 787,-8 8,-8"/>
<text xml:space="preserve" text-anchor="middle" x="397.5" y="-162.7" font-family="Times,serif" font-size="14.00">Packages server</text>
</g>
<g id="clust2" class="cluster">
<title>cluster_1</title>
<polygon fill="lightblue" stroke="lightblue" points="16,-16 16,-111 114,-111 114,-16 16,-16"/>
<text xml:space="preserve" text-anchor="middle" x="65" y="-93.7" font-family="Times,serif" font-size="14.00">packages</text>
<text xml:space="preserve" text-anchor="middle" x="65" y="-76.45" font-family="Times,serif" font-size="14.00"> repository</text>
</g>
<g id="clust3" class="cluster">
<title>cluster_2</title>
<polygon fill="lightblue" stroke="lightblue" points="134,-16 134,-111 229,-111 229,-16 134,-16"/>
<text xml:space="preserve" text-anchor="middle" x="181.5" y="-93.7" font-family="Times,serif" font-size="14.00">products</text>
<text xml:space="preserve" text-anchor="middle" x="181.5" y="-76.45" font-family="Times,serif" font-size="14.00"> repository</text>
</g>
<g id="clust4" class="cluster">
<title>cluster_3</title>
<polygon fill="lightblue" stroke="lightblue" points="249,-16 249,-147 779,-147 779,-16 249,-16"/>
<text xml:space="preserve" text-anchor="middle" x="514" y="-129.7" font-family="Times,serif" font-size="14.00">develop repository</text>
</g>
<!-- packages -->
<!-- products -->
<!-- packages&#45;&gt;products -->
<!-- game/1.0 -->
<g id="node3" class="node">
<title>game/1.0</title>
<polygon fill="lightgreen" stroke="black" points="339,-60 257,-60 257,-24 339,-24 339,-60"/>
<text xml:space="preserve" text-anchor="middle" x="298" y="-37.33" font-family="Times,serif" font-size="14.00">game/1.0</text>
</g>
<!-- products&#45;&gt;game/1.0 -->
<!-- engine/1.0 -->
<g id="node4" class="node">
<title>engine/1.0</title>
<polygon fill="lightskyblue" stroke="black" points="481.38,-60 390.38,-60 390.38,-24 481.38,-24 481.38,-60"/>
<text xml:space="preserve" text-anchor="middle" x="435.88" y="-37.33" font-family="Times,serif" font-size="14.00">engine/1.0</text>
</g>
<!-- game/1.0&#45;&gt;engine/1.0 -->
<g id="edge1" class="edge">
<title>game/1.0&#45;&gt;engine/1.0</title>
<path fill="none" stroke="black" d="M339.4,-42C351.74,-42 365.54,-42 378.73,-42"/>
<polygon fill="black" stroke="black" points="378.6,-45.5 388.6,-42 378.6,-38.5 378.6,-45.5"/>
</g>
<!-- ai/1.0 -->
<g id="node5" class="node">
<title>ai/1.0</title>
<polygon fill="lightskyblue" stroke="black" points="612.88,-60 557.12,-60 557.12,-24 612.88,-24 612.88,-60"/>
<text xml:space="preserve" text-anchor="middle" x="585" y="-37.33" font-family="Times,serif" font-size="14.00">ai/1.0</text>
</g>
<!-- engine/1.0&#45;&gt;ai/1.0 -->
<g id="edge2" class="edge">
<title>engine/1.0&#45;&gt;ai/1.0</title>
<path fill="none" stroke="black" d="M481.82,-42C502.21,-42 526.07,-42 545.61,-42"/>
<polygon fill="black" stroke="black" points="545.34,-45.5 555.34,-42 545.34,-38.5 545.34,-45.5"/>
</g>
<!-- graphics/1.0 -->
<g id="node7" class="node">
<title>graphics/1.0</title>
<polygon fill="lightskyblue" stroke="black" points="637.25,-114 532.75,-114 532.75,-78 637.25,-78 637.25,-114"/>
<text xml:space="preserve" text-anchor="middle" x="585" y="-91.33" font-family="Times,serif" font-size="14.00">graphics/1.0</text>
</g>
<!-- engine/1.0&#45;&gt;graphics/1.0 -->
<g id="edge4" class="edge">
<title>engine/1.0&#45;&gt;graphics/1.0</title>
<path fill="none" stroke="black" d="M481.82,-58.5C494.88,-63.29 509.37,-68.61 523.24,-73.7"/>
<polygon fill="black" stroke="black" points="521.67,-76.85 532.26,-77.01 524.08,-70.28 521.67,-76.85"/>
</g>
<!-- mathlib/1.0 -->
<g id="node6" class="node">
<title>mathlib/1.0</title>
<polygon fill="lightskyblue" stroke="black" points="771,-87 673.25,-87 673.25,-51 771,-51 771,-87"/>
<text xml:space="preserve" text-anchor="middle" x="722.12" y="-64.33" font-family="Times,serif" font-size="14.00">mathlib/1.0</text>
</g>
<!-- ai/1.0&#45;&gt;mathlib/1.0 -->
<g id="edge3" class="edge">
<title>ai/1.0&#45;&gt;mathlib/1.0</title>
<path fill="none" stroke="black" d="M613.34,-47.46C627.33,-50.26 644.92,-53.77 661.81,-57.15"/>
<polygon fill="black" stroke="black" points="660.79,-60.51 671.28,-59.04 662.16,-53.65 660.79,-60.51"/>
</g>
<!-- graphics/1.0&#45;&gt;mathlib/1.0 -->
<g id="edge5" class="edge">
<title>graphics/1.0&#45;&gt;mathlib/1.0</title>
<path fill="none" stroke="black" d="M637.47,-85.72C645.38,-84.14 653.6,-82.49 661.66,-80.88"/>
<polygon fill="black" stroke="black" points="662.31,-84.32 671.43,-78.93 660.93,-77.46 662.31,-84.32"/>
</g>
<!-- mapviewer/1.0 -->
<g id="node8" class="node">
<title>mapviewer/1.0</title>
<polygon fill="lightgreen" stroke="black" points="496.75,-114 375,-114 375,-78 496.75,-78 496.75,-114"/>
<text xml:space="preserve" text-anchor="middle" x="435.88" y="-91.33" font-family="Times,serif" font-size="14.00">mapviewer/1.0</text>
</g>
<!-- mapviewer/1.0&#45;&gt;graphics/1.0 -->
<g id="edge6" class="edge">
<title>mapviewer/1.0&#45;&gt;graphics/1.0</title>
<path fill="none" stroke="black" d="M497.14,-96C505.03,-96 513.13,-96 521.07,-96"/>
<polygon fill="black" stroke="black" points="521.01,-99.5 531.01,-96 521.01,-92.5 521.01,-99.5"/>
</g>
</g>
</svg>
