<?xml version="1.0" encoding="UTF-8" standalone="no"?>
<!DOCTYPE svg PUBLIC "-//W3C//DTD SVG 1.1//EN"
 "http://www.w3.org/Graphics/SVG/1.1/DTD/svg11.dtd">
<!-- Generated by graphviz version 14.1.2 (20260126.1125)
 -->
<!-- Title: repositories Pages: 1 -->
<svg width="815pt" height="281pt"
 viewBox="0.00 0.00 815.00 281.00" xmlns="http://www.w3.org/2000/svg" xmlns:xlink="http://www.w3.org/1999/xlink">
<g id="graph0" class="graph" transform="scale(1 1) rotate(0) translate(4 277)">
<title>repositories</title>
<polygon fill="white" stroke="none" points="-4,4 -4,-277 811,-277 811,4 -4,4"/>
<g id="clust1" class="cluster">
<title>cluster_0</title>
<polygon fill="lightgrey" stroke="lightgrey" points="8,-8 8,-265 799,-265 799,-8 8,-8"/>
<text xml:space="preserve" text-anchor="middle" x="403.5" y="-247.7" font-family="Times,serif" font-size="14.00">Packages server</text>
</g>
<g id="clust2" class="cluster">
<title>cluster_1</title>
<polygon fill="lightblue" stroke="lightblue" points="16,-16 16,-232 118.5,-232 118.5,-16 16,-16"/>
<text xml:space="preserve" text-anchor="middle" x="67.25" y="-214.7" font-family="Times,serif" font-size="14.00">packages</text>
<text xml:space="preserve" text-anchor="middle" x="67.25" y="-197.45" font-family="Times,serif" font-size="14.00"> repository</text>
</g>
<g id="clust3" class="cluster">
<title>cluster_2</title>
<polygon fill="lightblue" stroke="lightblue" points="138.5,-16 138.5,-232 241,-232 241,-16 138.5,-16"/>
<text xml:space="preserve" text-anchor="middle" x="189.75" y="-214.7" font-family="Times,serif" font-size="14.00">products</text>
<text xml:space="preserve" text-anchor="middle" x="189.75" y="-197.45" font-family="Times,serif" font-size="14.00"> repository</text>
</g>
<g id="clust4" class="cluster">
<title>cluster_3</title>
<polygon fill="lightblue" stroke="lightblue" points="261,-16 261,-147 791,-147 791,-16 261,-16"/>
<text xml:space="preserve" text-anchor="middle" x="526" y="-129.7" font-family="Times,serif" font-size="14.00">develop repository</text>
</g>
<!-- packages -->
<!-- products -->
<!-- packages&#45;&gt;products -->
<!-- ai/1.1.0\n (Release) -->
<g id="node2" class="node">
<title>ai/1.1.0\n (Release)</title>
<polygon fill="lightskyblue" stroke="black" points="110.5,-120.25 24,-120.25 24,-77.75 110.5,-77.75 110.5,-120.25"/>
<text xml:space="preserve" text-anchor="middle" x="67.25" y="-102.95" font-family="Times,serif" font-size="14.00">ai/1.1.0</text>
<text xml:space="preserve" text-anchor="middle" x="67.25" y="-85.7" font-family="Times,serif" font-size="14.00"> (Release)</text>
</g>
<!-- ai/1.1.0\n (Debug) -->
<g id="node3" class="node">
<title>ai/1.1.0\n (Debug)</title>
<polygon fill="lightskyblue" stroke="black" points="106,-181.25 28.5,-181.25 28.5,-138.75 106,-138.75 106,-181.25"/>
<text xml:space="preserve" text-anchor="middle" x="67.25" y="-163.95" font-family="Times,serif" font-size="14.00">ai/1.1.0</text>
<text xml:space="preserve" text-anchor="middle" x="67.25" y="-146.7" font-family="Times,serif" font-size="14.00"> (Debug)</text>
</g>
<!-- game/1.0 -->
<g id="node7" class="node">
<title>game/1.0</title>
<polygon fill="lightgreen" stroke="black" points="351,-60 269,-60 269,-24 351,-24 351,-60"/>
<text xml:space="preserve" text-anchor="middle" x="310" y="-37.33" font-family="Times,serif" font-size="14.00">game/1.0</text>
</g>
<!-- products&#45;&gt;game/1.0 -->
<!-- ai/promoted release -->
<g id="node5" class="node">
<title>ai/promoted release</title>
<polygon fill="lightskyblue" stroke="black" points="233,-120.25 146.5,-120.25 146.5,-77.75 233,-77.75 233,-120.25"/>
<text xml:space="preserve" text-anchor="middle" x="189.75" y="-102.95" font-family="Times,serif" font-size="14.00">ai/1.1.0</text>
<text xml:space="preserve" text-anchor="middle" x="189.75" y="-85.7" font-family="Times,serif" font-size="14.00"> (Release)</text>
</g>
<!-- ai/promoted debug -->
<g id="node6" class="node">
<title>ai/promoted debug</title>
<polygon fill="lightskyblue" stroke="black" points="228.5,-181.25 151,-181.25 151,-138.75 228.5,-138.75 228.5,-181.25"/>
<text xml:space="preserve" text-anchor="middle" x="189.75" y="-163.95" font-family="Times,serif" font-size="14.00">ai/1.1.0</text>
<text xml:space="preserve" text-anchor="middle" x="189.75" y="-146.7" font-family="Times,serif" font-size="14.00"> (Debug)</text>
</g>
<!-- engine/1.0 -->
<g id="node8" class="node">
<title>engine/1.0</title>
<polygon fill="lightskyblue" stroke="black" points="493.38,-60 402.38,-60 402.38,-24 493.38,-24 493.38,-60"/>
<text xml:space="preserve" text-anchor="middle" x="447.88" y="-37.33" font-family="Times,serif" font-size="14.00">engine/1.0</text>
</g>
<!-- game/1.0&#45;&gt;engine/1.0 -->
<g id="edge1" class="edge">
<title>game/1.0&#45;&gt;engine/1.0</title>
<path fill="none" stroke="black" d="M351.4,-42C363.74,-42 377.54,-42 390.73,-42"/>
<polygon fill="black" stroke="black" points="390.6,-45.5 400.6,-42 390.6,-38.5 390.6,-45.5"/>
</g>
<!-- ai/1.0 -->
<g id="node9" class="node">
<title>ai/1.0</title>
<polygon fill="lightskyblue" stroke="black" points="624.88,-60 569.12,-60 569.12,-24 624.88,-24 624.88,-60"/>
<text xml:space="preserve" text-anchor="middle" x="597" y="-37.33" font-family="Times,serif" font-size="14.00">ai/1.0</text>
</g>
<!-- engine/1.0&#45;&gt;ai/1.0 -->
<g id="edge2" class="edge">
<title>engine/1.0&#45;&gt;ai/1.0</title>
<path fill="none" stroke="black" d="M493.82,-42C514.21,-42 538.07,-42 557.61,-42"/>
<polygon fill="black" stroke="black" points="557.34,-45.5 567.34,-42 557.34,-38.5 557.34,-45.5"/>
</g>
<!-- graphics/1.0 -->
<g id="node11" class="node">
<title>graphics/1.0</title>
<polygon fill="lightskyblue" stroke="black" points="649.25,-114 544.75,-114 544.75,-78 649.25,-78 649.25,-114"/>
<text xml:space="preserve" text-anchor="middle" x="597" y="-91.33" font-family="Times,serif" font-size="14.00">graphics/1.0</text>
</g>
<!-- engine/1.0&#45;&gt;graphics/1.0 -->
<g id="edge4" class="edge">
<title>engine/1.0&#45;&gt;graphics/1.0</title>
<path fill="none" stroke="black" d="M493.82,-58.5C506.88,-63.29 521.37,-68.61 535.24,-73.7"/>
<polygon fill="black" stroke="black" points="533.67,-76.85 544.26,-77.01 536.08,-70.28 533.67,-76.85"/>
</g>
<!-- mathlib/1.0 -->
<g id="node10" class="node">
<title>mathlib/1.0</title>
<polygon fill="lightskyblue" stroke="black" points="783,-87 685.25,-87 685.25,-51 783,-51 783,-87"/>
<text xml:space="preserve" text-anchor="middle" x="734.12" y="-64.33" font-family="Times,serif" font-size="14.00">mathlib/1.0</text>
</g>
<!-- ai/1.0&#45;&gt;mathlib/1.0 -->
<g id="edge3" class="edge">
<title>ai/1.0&#45;&gt;mathlib/1.0</title>
<path fill="none" stroke="black" d="M625.34,-47.46C639.33,-50.26 656.92,-53.77 673.81,-57.15"/>
<polygon fill="black" stroke="black" points="672.79,-60.51 683.28,-59.04 674.16,-53.65 672.79,-60.51"/>
</g>
<!-- graphics/1.0&#45;&gt;mathlib/1.0 -->
<g id="edge5" class="edge">
<title>graphics/1.0&#45;&gt;mathlib/1.0</title>
<path fill="none" stroke="black" d="M649.47,-85.72C657.38,-84.14 665.6,-82.49 673.66,-80.88"/>
<polygon fill="black" stroke="black" points="674.31,-84.32 683.43,-78.93 672.93,-77.46 674.31,-84.32"/>
</g>
<!-- mapviewer/1.0 -->
<g id="node12" class="node">
<title>mapviewer/1.0</title>
<polygon fill="lightgreen" stroke="black" points="508.75,-114 387,-114 387,-78 508.75,-78 508.75,-114"/>
<text xml:space="preserve" text-anchor="middle" x="447.88" y="-91.33" font-family="Times,serif" font-size="14.00">mapviewer/1.0</text>
</g>
<!-- mapviewer/1.0&#45;&gt;graphics/1.0 -->
<g id="edge6" class="edge">
<title>mapviewer/1.0&#45;&gt;graphics/1.0</title>
<path fill="none" stroke="black" d="M509.14,-96C517.03,-96 525.13,-96 533.07,-96"/>
<polygon fill="black" stroke="black" points="533.01,-99.5 543.01,-96 533.01,-92.5 533.01,-99.5"/>
</g>
</g>
</svg>
