<?xml version="1.0" encoding="UTF-8" standalone="no"?>
<!DOCTYPE svg PUBLIC "-//W3C//DTD SVG 1.1//EN"
 "http://www.w3.org/Graphics/SVG/1.1/DTD/svg11.dtd">
<!-- Generated by graphviz version 14.1.2 (20260126.1125)
 -->
<!-- Title: repositories Pages: 1 -->
<svg width="840pt" height="281pt"
 viewBox="0.00 0.00 840.00 281.00" xmlns="http://www.w3.org/2000/svg" xmlns:xlink="http://www.w3.org/1999/xlink">
<g id="graph0" class="graph" transform="scale(1 1) rotate(0) translate(4 277)">
<title>repositories</title>
<polygon fill="white" stroke="none" points="-4,4 -4,-277 835.75,-277 835.75,4 -4,4"/>
<g id="clust1" class="cluster">
<title>cluster_0</title>
<polygon fill="lightgrey" stroke="lightgrey" points="8,-8 8,-265 823.75,-265 823.75,-8 8,-8"/>
<text xml:space="preserve" text-anchor="middle" x="415.88" y="-247.7" font-family="Times,serif" font-size="14.00">Packages server</text>
</g>
<g id="clust2" class="cluster">
<title>cluster_1</title>
<polygon fill="lightblue" stroke="lightblue" points="16,-16 16,-232 118.5,-232 118.5,-16 16,-16"/>
<text xml:space="preserve" text-anchor="middle" x="67.25" y="-214.7" font-family="Times,serif" font-size="14.00">packages</text>
<text xml:space="preserve" text-anchor="middle" x="67.25" y="-197.45" font-family="Times,serif" font-size="14.00"> repository</text>
</g>
<g id="clust3" class="cluster">
<title>cluster_2</title>
<polygon fill="lightblue" stroke="lightblue" points="138.5,-16 138.5,-111 233.5,-111 233.5,-16 138.5,-16"/>
<text xml:space="preserve" text-anchor="middle" x="186" y="-93.7" font-family="Times,serif" font-size="14.00">products</text>
<text xml:space="preserve" text-anchor="middle" x="186" y="-76.45" font-family="Times,serif" font-size="14.00"> repository</text>
</g>
<g id="clust4" class="cluster">
<title>cluster_3</title>
<polygon fill="lightblue" stroke="lightblue" points="253.5,-16 253.5,-208 815.75,-208 815.75,-16 253.5,-16"/>
<text xml:space="preserve" text-anchor="middle" x="534.62" y="-190.7" font-family="Times,serif" font-size="14.00">develop repository</text>
</g>
<!-- packages -->
<!-- products -->
<!-- packages&#45;&gt;products -->
<!-- ai/1.1.0\n (Release) -->
<g id="node2" class="node">
<title>ai/1.1.0\n (Release)</title>
<polygon fill="lightskyblue" stroke="black" points="110.5,-120.25 24,-120.25 24,-77.75 110.5,-77.75 110.5,-120.25"/>
<text xml:space="preserve" text-anchor="middle" x="67.25" y="-102.95" font-family="Times,serif" font-size="14.00">ai/1.1.0</text>
<text xml:space="preserve" text-anchor="middle" x="67.25" y="-85.7" font-family="Times,serif" font-size="14.00"> (Release)</text>
</g>
<!-- ai/1.1.0\n (Debug) -->
<g id="node3" class="node">
<title>ai/1.1.0\n (Debug)</title>
<polygon fill="lightskyblue" stroke="black" points="106,-181.25 28.5,-181.25 28.5,-138.75 106,-138.75 106,-181.25"/>
<text xml:space="preserve" text-anchor="middle" x="67.25" y="-163.95" font-family="Times,serif" font-size="14.00">ai/1.1.0</text>
<text xml:space="preserve" text-anchor="middle" x="67.25" y="-146.7" font-family="Times,serif" font-size="14.00"> (Debug)</text>
</g>
<!-- game/1.0 -->
<g id="node5" class="node">
<title>game/1.0</title>
<polygon fill="lightgreen" stroke="black" points="355.5,-60 273.5,-60 273.5,-24 355.5,-24 355.5,-60"/>
<text xml:space="preserve" text-anchor="middle" x="314.5" y="-37.33" font-family="Times,serif" font-size="14.00">game/1.0</text>
</g>
<!-- products&#45;&gt;game/1.0 -->
<!-- engine/1.0 -->
<g id="node6" class="node">
<title>engine/1.0</title>
<polygon fill="lightskyblue" stroke="black" points="509.88,-60 418.88,-60 418.88,-24 509.88,-24 509.88,-60"/>
<text xml:space="preserve" text-anchor="middle" x="464.38" y="-37.33" font-family="Times,serif" font-size="14.00">engine/1.0</text>
</g>
<!-- game/1.0&#45;&gt;engine/1.0 -->
<g id="edge1" class="edge">
<title>game/1.0&#45;&gt;engine/1.0</title>
<path fill="none" stroke="black" d="M355.91,-42C371.83,-42 390.39,-42 407.55,-42"/>
<polygon fill="black" stroke="black" points="407.08,-45.5 417.08,-42 407.08,-38.5 407.08,-45.5"/>
</g>
<!-- ai/1.0 -->
<g id="node7" class="node">
<title>ai/1.0</title>
<polygon fill="lightskyblue" stroke="black" points="645.5,-60 589.75,-60 589.75,-24 645.5,-24 645.5,-60"/>
<text xml:space="preserve" text-anchor="middle" x="617.62" y="-37.33" font-family="Times,serif" font-size="14.00">ai/1.0</text>
</g>
<!-- engine/1.0&#45;&gt;ai/1.0 -->
<g id="edge2" class="edge">
<title>engine/1.0&#45;&gt;ai/1.0</title>
<path fill="none" stroke="black" d="M510.35,-42C531.99,-42 557.67,-42 578.37,-42"/>
<polygon fill="black" stroke="black" points="578.09,-45.5 588.09,-42 578.09,-38.5 578.09,-45.5"/>
</g>
<!-- graphics/1.0 -->
<g id="node9" class="node">
<title>graphics/1.0</title>
<polygon fill="lightskyblue" stroke="black" points="669.88,-114 565.38,-114 565.38,-78 669.88,-78 669.88,-114"/>
<text xml:space="preserve" text-anchor="middle" x="617.62" y="-91.33" font-family="Times,serif" font-size="14.00">graphics/1.0</text>
</g>
<!-- engine/1.0&#45;&gt;graphics/1.0 -->
<g id="edge4" class="edge">
<title>engine/1.0&#45;&gt;graphics/1.0</title>
<path fill="none" stroke="black" d="M510.35,-58.06C524.15,-62.98 539.59,-68.5 554.34,-73.76"/>
<polygon fill="black" stroke="black" points="552.9,-76.96 563.49,-77.03 555.25,-70.37 552.9,-76.96"/>
</g>
<!-- mathlib/1.0 -->
<g id="node8" class="node">
<title>mathlib/1.0</title>
<polygon fill="lightskyblue" stroke="black" points="807.75,-114 710,-114 710,-78 807.75,-78 807.75,-114"/>
<text xml:space="preserve" text-anchor="middle" x="758.88" y="-91.33" font-family="Times,serif" font-size="14.00">mathlib/1.0</text>
</g>
<!-- ai/1.0&#45;&gt;mathlib/1.0 -->
<g id="edge3" class="edge">
<title>ai/1.0&#45;&gt;mathlib/1.0</title>
<path fill="none" stroke="black" d="M645.8,-52.54C661.16,-58.49 680.97,-66.18 699.65,-73.42"/>
<polygon fill="black" stroke="black" points="698.18,-76.6 708.77,-76.96 700.71,-70.08 698.18,-76.6"/>
</g>
<!-- graphics/1.0&#45;&gt;mathlib/1.0 -->
<g id="edge5" class="edge">
<title>graphics/1.0&#45;&gt;mathlib/1.0</title>
<path fill="none" stroke="black" d="M670.08,-96C679.33,-96 689.05,-96 698.5,-96"/>
<polygon fill="black" stroke="black" points="698.35,-99.5 708.35,-96 698.35,-92.5 698.35,-99.5"/>
</g>
<!-- mapviewer/1.0 -->
<g id="node10" class="node">
<title>mapviewer/1.0</title>
<polygon fill="lightgreen" stroke="black" points="525.25,-114 403.5,-114 403.5,-78 525.25,-78 525.25,-114"/>
<text xml:space="preserve" text-anchor="middle" x="464.38" y="-91.33" font-family="Times,serif" font-size="14.00">mapviewer/1.0</text>
</g>
<!-- mapviewer/1.0&#45;&gt;graphics/1.0 -->
<g id="edge6" class="edge">
<title>mapviewer/1.0&#45;&gt;graphics/1.0</title>
<path fill="none" stroke="black" d="M525.59,-96C534.74,-96 544.21,-96 553.42,-96"/>
<polygon fill="black" stroke="black" points="553.4,-99.5 563.4,-96 553.4,-92.5 553.4,-99.5"/>
</g>
<!-- ai/promoted -->
<g id="node11" class="node">
<title>ai/promoted</title>
<polygon fill="lightskyblue" stroke="black" points="674,-174.25 561.25,-174.25 561.25,-131.75 674,-131.75 674,-174.25"/>
<text xml:space="preserve" text-anchor="middle" x="617.62" y="-156.95" font-family="Times,serif" font-size="14.00">ai/1.1.0</text>
<text xml:space="preserve" text-anchor="middle" x="617.62" y="-139.7" font-family="Times,serif" font-size="14.00">(new version)</text>
</g>
<!-- ai/promoted&#45;&gt;mathlib/1.0 -->
<g id="edge9" class="edge">
<title>ai/promoted&#45;&gt;mathlib/1.0</title>
<path fill="none" stroke="black" d="M671.67,-131.29C681.71,-127.18 692.23,-122.87 702.35,-118.73"/>
<polygon fill="black" stroke="black" points="703.37,-122.09 711.3,-115.06 700.72,-115.61 703.37,-122.09"/>
</g>
<!-- engine/promoted -->
<g id="node12" class="node">
<title>engine/promoted</title>
<polygon fill="lightskyblue" stroke="black" points="517.38,-174.25 411.38,-174.25 411.38,-131.75 517.38,-131.75 517.38,-174.25"/>
<text xml:space="preserve" text-anchor="middle" x="464.38" y="-156.95" font-family="Times,serif" font-size="14.00">engine/1.0</text>
<text xml:space="preserve" text-anchor="middle" x="464.38" y="-139.7" font-family="Times,serif" font-size="14.00">(new binary)</text>
</g>
<!-- engine/promoted&#45;&gt;graphics/1.0 -->
<g id="edge10" class="edge">
<title>engine/promoted&#45;&gt;graphics/1.0</title>
<path fill="none" stroke="black" d="M517.85,-133.22C530.45,-128.48 544,-123.37 556.9,-118.51"/>
<polygon fill="black" stroke="black" points="558.01,-121.83 566.13,-115.03 555.54,-115.28 558.01,-121.83"/>
</g>
<!-- engine/promoted&#45;&gt;ai/promoted -->
<g id="edge8" class="edge">
<title>engine/promoted&#45;&gt;ai/promoted</title>
<path fill="none" stroke="black" d="M517.85,-153C528.06,-153 538.9,-153 549.51,-153"/>
<polygon fill="black" stroke="black" points="549.38,-156.5 559.38,-153 549.38,-149.5 549.38,-156.5"/>
</g>
<!-- game/promoted -->
<g id="node13" class="node">
<title>game/promoted</title>
<polygon fill="lightgreen" stroke="black" points="367.5,-174.25 261.5,-174.25 261.5,-131.75 367.5,-131.75 367.5,-174.25"/>
<text xml:space="preserve" text-anchor="middle" x="314.5" y="-156.95" font-family="Times,serif" font-size="14.00">game/1.0</text>
<text xml:space="preserve" text-anchor="middle" x="314.5" y="-139.7" font-family="Times,serif" font-size="14.00">(new binary)</text>
</g>
<!-- game/promoted&#45;&gt;engine/promoted -->
<g id="edge7" class="edge">
<title>game/promoted&#45;&gt;engine/promoted</title>
<path fill="none" stroke="black" d="M367.64,-153C378.02,-153 389.03,-153 399.74,-153"/>
<polygon fill="black" stroke="black" points="399.7,-156.5 409.7,-153 399.7,-149.5 399.7,-156.5"/>
</g>
</g>
</svg>
