<?xml version="1.0" encoding="UTF-8" standalone="no"?>
<!DOCTYPE svg PUBLIC "-//W3C//DTD SVG 1.1//EN"
 "http://www.w3.org/Graphics/SVG/1.1/DTD/svg11.dtd">
<!-- Generated by graphviz version 14.1.2 (20260126.1125)
 -->
<!-- Title: conflict Pages: 1 -->
<svg width="258pt" height="188pt"
 viewBox="0.00 0.00 258.00 188.00" xmlns="http://www.w3.org/2000/svg" xmlns:xlink="http://www.w3.org/1999/xlink">
<g id="graph0" class="graph" transform="scale(1 1) rotate(0) translate(4 184)">
<title>conflict</title>
<polygon fill="white" stroke="none" points="-4,4 -4,-184 253.62,-184 253.62,4 -4,4"/>
<!-- game/1.0 -->
<g id="node1" class="node">
<title>game/1.0</title>
<polygon fill="lightskyblue" stroke="black" points="137.5,-36 55.5,-36 55.5,0 137.5,0 137.5,-36"/>
<text xml:space="preserve" text-anchor="middle" x="96.5" y="-13.32" font-family="Times,serif" font-size="14.00">game/1.0</text>
</g>
<!-- engine/1.0 -->
<g id="node2" class="node">
<title>engine/1.0</title>
<polygon fill="lightskyblue" stroke="black" points="91,-108 0,-108 0,-72 91,-72 91,-108"/>
<text xml:space="preserve" text-anchor="middle" x="45.5" y="-85.33" font-family="Times,serif" font-size="14.00">engine/1.0</text>
</g>
<!-- game/1.0&#45;&gt;engine/1.0 -->
<g id="edge1" class="edge">
<title>game/1.0&#45;&gt;engine/1.0</title>
<path fill="none" stroke="black" d="M83.89,-36.3C78.09,-44.27 71.07,-53.9 64.64,-62.74"/>
<polygon fill="black" stroke="black" points="61.91,-60.53 58.85,-70.67 67.57,-64.65 61.91,-60.53"/>
</g>
<!-- intro/1.0 -->
<g id="node4" class="node">
<title>intro/1.0</title>
<polygon fill="lightskyblue" stroke="black" points="186.25,-108 108.75,-108 108.75,-72 186.25,-72 186.25,-108"/>
<text xml:space="preserve" text-anchor="middle" x="147.5" y="-85.33" font-family="Times,serif" font-size="14.00">intro/1.0</text>
</g>
<!-- game/1.0&#45;&gt;intro/1.0 -->
<g id="edge3" class="edge">
<title>game/1.0&#45;&gt;intro/1.0</title>
<path fill="none" stroke="black" d="M109.11,-36.3C114.91,-44.27 121.93,-53.9 128.36,-62.74"/>
<polygon fill="black" stroke="black" points="125.43,-64.65 134.15,-70.67 131.09,-60.53 125.43,-64.65"/>
</g>
<!-- matrix/1.1 -->
<g id="node3" class="node">
<title>matrix/1.1</title>
<polygon fill="lightskyblue" stroke="black" points="141.62,-180 51.38,-180 51.38,-144 141.62,-144 141.62,-180"/>
<text xml:space="preserve" text-anchor="middle" x="96.5" y="-157.32" font-family="Times,serif" font-size="14.00">matrix/1.1</text>
</g>
<!-- engine/1.0&#45;&gt;matrix/1.1 -->
<g id="edge2" class="edge">
<title>engine/1.0&#45;&gt;matrix/1.1</title>
<path fill="none" stroke="black" d="M58.11,-108.3C63.91,-116.27 70.93,-125.9 77.36,-134.74"/>
<polygon fill="black" stroke="black" points="74.43,-136.65 83.15,-142.67 80.09,-132.53 74.43,-136.65"/>
</g>
<!-- matrix/1.0 -->
<g id="node5" class="node">
<title>matrix/1.0</title>
<polygon fill="lightskyblue" stroke="black" points="249.62,-180 159.38,-180 159.38,-144 249.62,-144 249.62,-180"/>
<text xml:space="preserve" text-anchor="middle" x="204.5" y="-157.32" font-family="Times,serif" font-size="14.00">matrix/1.0</text>
</g>
<!-- matrix/1.1&#45;&gt;matrix/1.0 -->
<!-- intro/1.0&#45;&gt;matrix/1.1 -->
<g id="edge4" class="edge">
<title>intro/1.0&#45;&gt;matrix/1.1</title>
<path fill="none" stroke="black" d="M134.89,-108.3C129.09,-116.27 122.07,-125.9 115.64,-134.74"/>
<polygon fill="black" stroke="black" points="112.91,-132.53 109.85,-142.67 118.57,-136.65 112.91,-132.53"/>
</g>
</g>
</svg>
