<?xml version="1.0" encoding="UTF-8" standalone="no"?>
<!DOCTYPE svg PUBLIC "-//W3C//DTD SVG 1.1//EN"
 "http://www.w3.org/Graphics/SVG/1.1/DTD/svg11.dtd">
<!-- Generated by graphviz version 14.1.2 (20260126.1125)
 -->
<!-- Title: repositories Pages: 1 -->
<svg width="808pt" height="281pt"
 viewBox="0.00 0.00 808.00 281.00" xmlns="http://www.w3.org/2000/svg" xmlns:xlink="http://www.w3.org/1999/xlink">
<g id="graph0" class="graph" transform="scale(1 1) rotate(0) translate(4 277)">
<title>repositories</title>
<polygon fill="white" stroke="none" points="-4,4 -4,-277 803.5,-277 803.5,4 -4,4"/>
<g id="clust1" class="cluster">
<title>cluster_0</title>
<polygon fill="lightgrey" stroke="lightgrey" points="8,-8 8,-265 791.5,-265 791.5,-8 8,-8"/>
<text xml:space="preserve" text-anchor="middle" x="399.75" y="-247.7" font-family="Times,serif" font-size="14.00">Packages server</text>
</g>
<g id="clust2" class="cluster">
<title>cluster_1</title>
<polygon fill="lightblue" stroke="lightblue" points="16,-16 16,-232 118.5,-232 118.5,-16 16,-16"/>
<text xml:space="preserve" text-anchor="middle" x="67.25" y="-214.7" font-family="Times,serif" font-size="14.00">packages</text>
<text xml:space="preserve" text-anchor="middle" x="67.25" y="-197.45" font-family="Times,serif" font-size="14.00"> repository</text>
</g>
<g id="clust3" class="cluster">
<title>cluster_2</title>
<polygon fill="lightblue" stroke="lightblue" points="138.5,-16 138.5,-111 233.5,-111 233.5,-16 138.5,-16"/>
<text xml:space="preserve" text-anchor="middle" x="186" y="-93.7" font-family="Times,serif" font-size="14.00">products</text>
<text xml:space="preserve" text-anchor="middle" x="186" y="-76.45" font-family="Times,serif" font-size="14.00"> repository</text>
</g>
<g id="clust4" class="cluster">
<title>cluster_3</title>
<polygon fill="lightblue" stroke="lightblue" points="253.5,-16 253.5,-147 783.5,-147 783.5,-16 253.5,-16"/>
<text xml:space="preserve" text-anchor="middle" x="518.5" y="-129.7" font-family="Times,serif" font-size="14.00">develop repository</text>
</g>
<!-- packages -->
<!-- products -->
<!-- packages&#45;&gt;products -->
<!-- ai/1.1.0\n (Release) -->
<g id="node2" class="node">
<title>ai/1.1.0\n (Release)</title>
<polygon fill="lightskyblue" stroke="black" points="110.5,-120.25 24,-120.25 24,-77.75 110.5,-77.75 110.5,-120.25"/>
<text xml:space="preserve" text-anchor="middle" x="67.25" y="-102.95" font-family="Times,serif" font-size="14.00">ai/1.1.0</text>
<text xml:space="preserve" text-anchor="middle" x="67.25" y="-85.7" font-family="Times,serif" font-size="14.00"> (Release)</text>
</g>
<!-- ai/1.1.0\n (Debug) -->
<g id="node3" class="node">
<title>ai/1.1.0\n (Debug)</title>
<polygon fill="lightskyblue" stroke="black" points="106,-181.25 28.5,-181.25 28.5,-138.75 106,-138.75 106,-181.25"/>
<text xml:space="preserve" text-anchor="middle" x="67.25" y="-163.95" font-family="Times,serif" font-size="14.00">ai/1.1.0</text>
<text xml:space="preserve" text-anchor="middle" x="67.25" y="-146.7" font-family="Times,serif" font-size="14.00"> (Debug)</text>
</g>
<!-- game/1.0 -->
<g id="node5" class="node">
<title>game/1.0</title>
<polygon fill="lightgreen" stroke="black" points="343.5,-60 261.5,-60 261.5,-24 343.5,-24 343.5,-60"/>
<text xml:space="preserve" text-anchor="middle" x="302.5" y="-37.33" font-family="Times,serif" font-size="14.00">game/1.0</text>
</g>
<!-- products&#45;&gt;game/1.0 -->
<!-- engine/1.0 -->
<g id="node6" class="node">
<title>engine/1.0</title>
<polygon fill="lightskyblue" stroke="black" points="485.88,-60 394.88,-60 394.88,-24 485.88,-24 485.88,-60"/>
<text xml:space="preserve" text-anchor="middle" x="440.38" y="-37.33" font-family="Times,serif" font-size="14.00">engine/1.0</text>
</g>
<!-- game/1.0&#45;&gt;engine/1.0 -->
<g id="edge1" class="edge">
<title>game/1.0&#45;&gt;engine/1.0</title>
<path fill="none" stroke="black" d="M343.9,-42C356.24,-42 370.04,-42 383.23,-42"/>
<polygon fill="black" stroke="black" points="383.1,-45.5 393.1,-42 383.1,-38.5 383.1,-45.5"/>
</g>
<!-- ai/1.0 -->
<g id="node7" class="node">
<title>ai/1.0</title>
<polygon fill="lightskyblue" stroke="black" points="617.38,-60 561.62,-60 561.62,-24 617.38,-24 617.38,-60"/>
<text xml:space="preserve" text-anchor="middle" x="589.5" y="-37.33" font-family="Times,serif" font-size="14.00">ai/1.0</text>
</g>
<!-- engine/1.0&#45;&gt;ai/1.0 -->
<g id="edge2" class="edge">
<title>engine/1.0&#45;&gt;ai/1.0</title>
<path fill="none" stroke="black" d="M486.32,-42C506.71,-42 530.57,-42 550.11,-42"/>
<polygon fill="black" stroke="black" points="549.84,-45.5 559.84,-42 549.84,-38.5 549.84,-45.5"/>
</g>
<!-- graphics/1.0 -->
<g id="node9" class="node">
<title>graphics/1.0</title>
<polygon fill="lightskyblue" stroke="black" points="641.75,-114 537.25,-114 537.25,-78 641.75,-78 641.75,-114"/>
<text xml:space="preserve" text-anchor="middle" x="589.5" y="-91.33" font-family="Times,serif" font-size="14.00">graphics/1.0</text>
</g>
<!-- engine/1.0&#45;&gt;graphics/1.0 -->
<g id="edge4" class="edge">
<title>engine/1.0&#45;&gt;graphics/1.0</title>
<path fill="none" stroke="black" d="M486.32,-58.5C499.38,-63.29 513.87,-68.61 527.74,-73.7"/>
<polygon fill="black" stroke="black" points="526.17,-76.85 536.76,-77.01 528.58,-70.28 526.17,-76.85"/>
</g>
<!-- mathlib/1.0 -->
<g id="node8" class="node">
<title>mathlib/1.0</title>
<polygon fill="lightskyblue" stroke="black" points="775.5,-87 677.75,-87 677.75,-51 775.5,-51 775.5,-87"/>
<text xml:space="preserve" text-anchor="middle" x="726.62" y="-64.33" font-family="Times,serif" font-size="14.00">mathlib/1.0</text>
</g>
<!-- ai/1.0&#45;&gt;mathlib/1.0 -->
<g id="edge3" class="edge">
<title>ai/1.0&#45;&gt;mathlib/1.0</title>
<path fill="none" stroke="black" d="M617.84,-47.46C631.83,-50.26 649.42,-53.77 666.31,-57.15"/>
<polygon fill="black" stroke="black" points="665.29,-60.51 675.78,-59.04 666.66,-53.65 665.29,-60.51"/>
</g>
<!-- graphics/1.0&#45;&gt;mathlib/1.0 -->
<g id="edge5" class="edge">
<title>graphics/1.0&#45;&gt;mathlib/1.0</title>
<path fill="none" stroke="black" d="M641.97,-85.72C649.88,-84.14 658.1,-82.49 666.16,-80.88"/>
<polygon fill="black" stroke="black" points="666.81,-84.32 675.93,-78.93 665.43,-77.46 666.81,-84.32"/>
</g>
<!-- mapviewer/1.0 -->
<g id="node10" class="node">
<title>mapviewer/1.0</title>
<polygon fill="lightgreen" stroke="black" points="501.25,-114 379.5,-114 379.5,-78 501.25,-78 501.25,-114"/>
<text xml:space="preserve" text-anchor="middle" x="440.38" y="-91.33" font-family="Times,serif" font-size="14.00">mapviewer/1.0</text>
</g>
<!-- mapviewer/1.0&#45;&gt;graphics/1.0 -->
<g id="edge6" class="edge">
<title>mapviewer/1.0&#45;&gt;graphics/1.0</title>
<path fill="none" stroke="black" d="M501.64,-96C509.53,-96 517.63,-96 525.57,-96"/>
<polygon fill="black" stroke="black" points="525.51,-99.5 535.51,-96 525.51,-92.5 525.51,-99.5"/>
</g>
</g>
</svg>
