<?xml version="1.0" encoding="UTF-8" standalone="no"?>
<!DOCTYPE svg PUBLIC "-//W3C//DTD SVG 1.1//EN"
 "http://www.w3.org/Graphics/SVG/1.1/DTD/svg11.dtd">
<!-- Generated by graphviz version 14.1.2 (20260126.1125)
 -->
<!-- Title: repositories Pages: 1 -->
<svg width="845pt" height="220pt"
 viewBox="0.00 0.00 845.00 220.00" xmlns="http://www.w3.org/2000/svg" xmlns:xlink="http://www.w3.org/1999/xlink">
<g id="graph0" class="graph" transform="scale(1 1) rotate(0) translate(4 216)">
<title>repositories</title>
<polygon fill="white" stroke="none" points="-4,4 -4,-216 841,-216 841,4 -4,4"/>
<g id="clust1" class="cluster">
<title>cluster_0</title>
<polygon fill="lightgrey" stroke="lightgrey" points="8,-8 8,-204 829,-204 829,-8 8,-8"/>
<text xml:space="preserve" text-anchor="middle" x="418.5" y="-186.7" font-family="Times,serif" font-size="14.00">Packages server</text>
</g>
<g id="clust2" class="cluster">
<title>cluster_1</title>
<polygon fill="lightblue" stroke="lightblue" points="16,-16 16,-111 114,-111 114,-16 16,-16"/>
<text xml:space="preserve" text-anchor="middle" x="65" y="-93.7" font-family="Times,serif" font-size="14.00">packages</text>
<text xml:space="preserve" text-anchor="middle" x="65" y="-76.45" font-family="Times,serif" font-size="14.00"> repository</text>
</g>
<g id="clust3" class="cluster">
<title>cluster_2</title>
<polygon fill="lightblue" stroke="lightblue" points="134,-16 134,-171 271,-171 271,-16 134,-16"/>
<text xml:space="preserve" text-anchor="middle" x="202.5" y="-153.7" font-family="Times,serif" font-size="14.00">products</text>
<text xml:space="preserve" text-anchor="middle" x="202.5" y="-136.45" font-family="Times,serif" font-size="14.00"> repository</text>
</g>
<g id="clust4" class="cluster">
<title>cluster_3</title>
<polygon fill="lightblue" stroke="lightblue" points="291,-16 291,-147 821,-147 821,-16 291,-16"/>
<text xml:space="preserve" text-anchor="middle" x="556" y="-129.7" font-family="Times,serif" font-size="14.00">develop repository</text>
</g>
<!-- packages -->
<!-- products -->
<!-- packages&#45;&gt;products -->
<!-- game/1.0 -->
<g id="node4" class="node">
<title>game/1.0</title>
<polygon fill="lightgreen" stroke="black" points="381,-60 299,-60 299,-24 381,-24 381,-60"/>
<text xml:space="preserve" text-anchor="middle" x="340" y="-37.33" font-family="Times,serif" font-size="14.00">game/1.0</text>
</g>
<!-- products&#45;&gt;game/1.0 -->
<!-- ai/1.1.0\n (single config) -->
<g id="node3" class="node">
<title>ai/1.1.0\n (single config)</title>
<polygon fill="lightskyblue" stroke="black" points="263,-120.25 142,-120.25 142,-77.75 263,-77.75 263,-120.25"/>
<text xml:space="preserve" text-anchor="middle" x="202.5" y="-102.95" font-family="Times,serif" font-size="14.00">ai/1.1.0</text>
<text xml:space="preserve" text-anchor="middle" x="202.5" y="-85.7" font-family="Times,serif" font-size="14.00"> (single config)</text>
</g>
<!-- engine/1.0 -->
<g id="node5" class="node">
<title>engine/1.0</title>
<polygon fill="lightskyblue" stroke="black" points="523.38,-60 432.38,-60 432.38,-24 523.38,-24 523.38,-60"/>
<text xml:space="preserve" text-anchor="middle" x="477.88" y="-37.33" font-family="Times,serif" font-size="14.00">engine/1.0</text>
</g>
<!-- game/1.0&#45;&gt;engine/1.0 -->
<g id="edge1" class="edge">
<title>game/1.0&#45;&gt;engine/1.0</title>
<path fill="none" stroke="black" d="M381.4,-42C393.74,-42 407.54,-42 420.73,-42"/>
<polygon fill="black" stroke="black" points="420.6,-45.5 430.6,-42 420.6,-38.5 420.6,-45.5"/>
</g>
<!-- ai/1.0 -->
<g id="node6" class="node">
<title>ai/1.0</title>
<polygon fill="lightskyblue" stroke="black" points="654.88,-60 599.12,-60 599.12,-24 654.88,-24 654.88,-60"/>
<text xml:space="preserve" text-anchor="middle" x="627" y="-37.33" font-family="Times,serif" font-size="14.00">ai/1.0</text>
</g>
<!-- engine/1.0&#45;&gt;ai/1.0 -->
<g id="edge2" class="edge">
<title>engine/1.0&#45;&gt;ai/1.0</title>
<path fill="none" stroke="black" d="M523.82,-42C544.21,-42 568.07,-42 587.61,-42"/>
<polygon fill="black" stroke="black" points="587.34,-45.5 597.34,-42 587.34,-38.5 587.34,-45.5"/>
</g>
<!-- graphics/1.0 -->
<g id="node8" class="node">
<title>graphics/1.0</title>
<polygon fill="lightskyblue" stroke="black" points="679.25,-114 574.75,-114 574.75,-78 679.25,-78 679.25,-114"/>
<text xml:space="preserve" text-anchor="middle" x="627" y="-91.33" font-family="Times,serif" font-size="14.00">graphics/1.0</text>
</g>
<!-- engine/1.0&#45;&gt;graphics/1.0 -->
<g id="edge4" class="edge">
<title>engine/1.0&#45;&gt;graphics/1.0</title>
<path fill="none" stroke="black" d="M523.82,-58.5C536.88,-63.29 551.37,-68.61 565.24,-73.7"/>
<polygon fill="black" stroke="black" points="563.67,-76.85 574.26,-77.01 566.08,-70.28 563.67,-76.85"/>
</g>
<!-- mathlib/1.0 -->
<g id="node7" class="node">
<title>mathlib/1.0</title>
<polygon fill="lightskyblue" stroke="black" points="813,-87 715.25,-87 715.25,-51 813,-51 813,-87"/>
<text xml:space="preserve" text-anchor="middle" x="764.12" y="-64.33" font-family="Times,serif" font-size="14.00">mathlib/1.0</text>
</g>
<!-- ai/1.0&#45;&gt;mathlib/1.0 -->
<g id="edge3" class="edge">
<title>ai/1.0&#45;&gt;mathlib/1.0</title>
<path fill="none" stroke="black" d="M655.34,-47.46C669.33,-50.26 686.92,-53.77 703.81,-57.15"/>
<polygon fill="black" stroke="black" points="702.79,-60.51 713.28,-59.04 704.16,-53.65 702.79,-60.51"/>
</g>
<!-- graphics/1.0&#45;&gt;mathlib/1.0 -->
<g id="edge5" class="edge">
<title>graphics/1.0&#45;&gt;mathlib/1.0</title>
<path fill="none" stroke="black" d="M679.47,-85.72C687.38,-84.14 695.6,-82.49 703.66,-80.88"/>
<polygon fill="black" stroke="black" points="704.31,-84.32 713.43,-78.93 702.93,-77.46 704.31,-84.32"/>
</g>
<!-- mapviewer/1.0 -->
<g id="node9" class="node">
<title>mapviewer/1.0</title>
<polygon fill="lightgreen" stroke="black" points="538.75,-114 417,-114 417,-78 538.75,-78 538.75,-114"/>
<text xml:space="preserve" text-anchor="middle" x="477.88" y="-91.33" font-family="Times,serif" font-size="14.00">mapviewer/1.0</text>
</g>
<!-- mapviewer/1.0&#45;&gt;graphics/1.0 -->
<g id="edge6" class="edge">
<title>mapviewer/1.0&#45;&gt;graphics/1.0</title>
<path fill="none" stroke="black" d="M539.14,-96C547.03,-96 555.13,-96 563.07,-96"/>
<polygon fill="black" stroke="black" points="563.01,-99.5 573.01,-96 563.01,-92.5 563.01,-99.5"/>
</g>
</g>
</svg>
