<?xml version="1.0" encoding="UTF-8" standalone="no"?>
<!DOCTYPE svg PUBLIC "-//W3C//DTD SVG 1.1//EN"
 "http://www.w3.org/Graphics/SVG/1.1/DTD/svg11.dtd">
<!-- Generated by graphviz version 14.1.2 (20260126.1125)
 -->
<!-- Title: components Pages: 1 -->
<svg width="218pt" height="116pt"
 viewBox="0.00 0.00 218.00 116.00" xmlns="http://www.w3.org/2000/svg" xmlns:xlink="http://www.w3.org/1999/xlink">
<g id="graph0" class="graph" transform="scale(1 1) rotate(0) translate(4 112)">
<title>components</title>
<polygon fill="white" stroke="none" points="-4,4 -4,-112 214.25,-112 214.25,4 -4,4"/>
<!-- algorithms -->
<g id="node1" class="node">
<title>algorithms</title>
<polygon fill="lightskyblue" stroke="black" points="117.62,-108 24.38,-108 24.38,-72 117.62,-72 117.62,-108"/>
<text xml:space="preserve" text-anchor="middle" x="71" y="-85.33" font-family="Times,serif" font-size="14.00">algorithms</text>
</g>
<!-- ai -->
<g id="node2" class="node">
<title>ai</title>
<polygon fill="lightskyblue" stroke="black" points="54,-36 0,-36 0,0 54,0 54,-36"/>
<text xml:space="preserve" text-anchor="middle" x="27" y="-13.32" font-family="Times,serif" font-size="14.00">ai</text>
</g>
<!-- algorithms&#45;&gt;ai -->
<g id="edge1" class="edge">
<title>algorithms&#45;&gt;ai</title>
<path fill="none" stroke="black" d="M60.12,-71.7C55.22,-63.9 49.32,-54.51 43.86,-45.83"/>
<polygon fill="black" stroke="black" points="46.84,-43.99 38.56,-37.39 40.92,-47.71 46.84,-43.99"/>
</g>
<!-- rendering -->
<g id="node3" class="node">
<title>rendering</title>
<polygon fill="lightskyblue" stroke="black" points="158.25,-36 71.75,-36 71.75,0 158.25,0 158.25,-36"/>
<text xml:space="preserve" text-anchor="middle" x="115" y="-13.32" font-family="Times,serif" font-size="14.00">rendering</text>
</g>
<!-- algorithms&#45;&gt;rendering -->
<g id="edge2" class="edge">
<title>algorithms&#45;&gt;rendering</title>
<path fill="none" stroke="black" d="M81.88,-71.7C86.78,-63.9 92.68,-54.51 98.14,-45.83"/>
<polygon fill="black" stroke="black" points="101.08,-47.71 103.44,-37.39 95.16,-43.99 101.08,-47.71"/>
</g>
<!-- network -->
<g id="node4" class="node">
<title>network</title>
<polygon fill="lightskyblue" stroke="black" points="210.25,-108 135.75,-108 135.75,-72 210.25,-72 210.25,-108"/>
<text xml:space="preserve" text-anchor="middle" x="173" y="-85.33" font-family="Times,serif" font-size="14.00">network</text>
</g>
</g>
</svg>
