<?xml version="1.0" encoding="UTF-8" standalone="no"?>
<!DOCTYPE svg PUBLIC "-//W3C//DTD SVG 1.1//EN"
 "http://www.w3.org/Graphics/SVG/1.1/DTD/svg11.dtd">
<!-- Generated by graphviz version 14.1.2 (20260126.1125)
 -->
<!-- Title: conflict Pages: 1 -->
<svg width="314pt" height="188pt"
 viewBox="0.00 0.00 314.00 188.00" xmlns="http://www.w3.org/2000/svg" xmlns:xlink="http://www.w3.org/1999/xlink">
<g id="graph0" class="graph" transform="scale(1 1) rotate(0) translate(4 184)">
<title>conflict</title>
<polygon fill="white" stroke="none" points="-4,4 -4,-184 310.25,-184 310.25,4 -4,4"/>
<!-- game/1.0 -->
<g id="node1" class="node">
<title>game/1.0</title>
<polygon fill="lightskyblue" stroke="black" points="194.12,-36 112.12,-36 112.12,0 194.12,0 194.12,-36"/>
<text xml:space="preserve" text-anchor="middle" x="153.12" y="-13.32" font-family="Times,serif" font-size="14.00">game/1.0</text>
</g>
<!-- engine/1.0 -->
<g id="node2" class="node">
<title>engine/1.0</title>
<polygon fill="lightskyblue" stroke="black" points="93.62,-108 2.62,-108 2.62,-72 93.62,-72 93.62,-108"/>
<text xml:space="preserve" text-anchor="middle" x="48.12" y="-85.33" font-family="Times,serif" font-size="14.00">engine/1.0</text>
</g>
<!-- game/1.0&#45;&gt;engine/1.0 -->
<g id="edge1" class="edge">
<title>game/1.0&#45;&gt;engine/1.0</title>
<path fill="none" stroke="black" d="M126.9,-36.48C113.77,-45.24 97.69,-55.96 83.49,-65.42"/>
<polygon fill="black" stroke="black" points="81.65,-62.44 75.28,-70.9 85.54,-68.27 81.65,-62.44"/>
</g>
<!-- intro/1.0 -->
<g id="node4" class="node">
<title>intro/1.0</title>
<polygon fill="lightskyblue" stroke="black" points="191.88,-108 114.38,-108 114.38,-72 191.88,-72 191.88,-108"/>
<text xml:space="preserve" text-anchor="middle" x="153.12" y="-85.33" font-family="Times,serif" font-size="14.00">intro/1.0</text>
</g>
<!-- game/1.0&#45;&gt;intro/1.0 -->
<g id="edge3" class="edge">
<title>game/1.0&#45;&gt;intro/1.0</title>
<path fill="none" stroke="black" d="M153.12,-36.3C153.12,-43.59 153.12,-52.27 153.12,-60.46"/>
<polygon fill="black" stroke="black" points="149.63,-60.38 153.13,-70.38 156.63,-60.38 149.63,-60.38"/>
</g>
<!-- matrix/1.2 -->
<g id="node6" class="node">
<title>matrix/1.2</title>
<polygon fill="orange" stroke="black" points="306.25,-180 216,-180 216,-144 306.25,-144 306.25,-180"/>
<text xml:space="preserve" text-anchor="middle" x="261.12" y="-157.32" font-family="Times,serif" font-size="14.00">matrix/1.2</text>
</g>
<!-- game/1.0&#45;&gt;matrix/1.2 -->
<g id="edge5" class="edge">
<title>game/1.0&#45;&gt;matrix/1.2</title>
<path fill="none" stroke="black" d="M169.78,-36.12C179.33,-46.24 191.33,-59.49 201.12,-72 216.86,-92.08 232.92,-116.14 244.46,-134.17"/>
<polygon fill="black" stroke="black" points="241.42,-135.91 249.73,-142.49 247.34,-132.16 241.42,-135.91"/>
</g>
<!-- matrix/1.0 -->
<g id="node3" class="node">
<title>matrix/1.0</title>
<polygon fill="orange" stroke="black" points="90.25,-180 0,-180 0,-144 90.25,-144 90.25,-180"/>
<text xml:space="preserve" text-anchor="middle" x="45.12" y="-157.32" font-family="Times,serif" font-size="14.00">matrix/1.0</text>
</g>
<!-- engine/1.0&#45;&gt;matrix/1.0 -->
<g id="edge2" class="edge">
<title>engine/1.0&#45;&gt;matrix/1.0</title>
<path fill="none" stroke="black" d="M47.38,-108.3C47.07,-115.59 46.7,-124.27 46.35,-132.46"/>
<polygon fill="black" stroke="black" points="42.85,-132.24 45.92,-142.38 49.85,-132.54 42.85,-132.24"/>
</g>
<!-- matrix/1.1 -->
<g id="node5" class="node">
<title>matrix/1.1</title>
<polygon fill="orange" stroke="black" points="198.25,-180 108,-180 108,-144 198.25,-144 198.25,-180"/>
<text xml:space="preserve" text-anchor="middle" x="153.12" y="-157.32" font-family="Times,serif" font-size="14.00">matrix/1.1</text>
</g>
<!-- intro/1.0&#45;&gt;matrix/1.1 -->
<g id="edge4" class="edge">
<title>intro/1.0&#45;&gt;matrix/1.1</title>
<path fill="none" stroke="black" d="M153.12,-108.3C153.12,-115.59 153.12,-124.27 153.12,-132.46"/>
<polygon fill="black" stroke="black" points="149.63,-132.38 153.13,-142.38 156.63,-132.38 149.63,-132.38"/>
</g>
<!-- matrix/1.1&#45;&gt;matrix/1.2 -->
</g>
</svg>
