<?xml version="1.0" encoding="UTF-8" standalone="no"?>
<!DOCTYPE svg PUBLIC "-//W3C//DTD SVG 1.1//EN"
 "http://www.w3.org/Graphics/SVG/1.1/DTD/svg11.dtd">
<!-- Generated by graphviz version 14.1.2 (20260126.1125)
 -->
<!-- Title: repositories Pages: 1 -->
<svg width="338pt" height="108pt"
 viewBox="0.00 0.00 338.00 108.00" xmlns="http://www.w3.org/2000/svg" xmlns:xlink="http://www.w3.org/1999/xlink">
<g id="graph0" class="graph" transform="scale(1 1) rotate(0) translate(4 104)">
<title>repositories</title>
<polygon fill="white" stroke="none" points="-4,4 -4,-104 333.5,-104 333.5,4 -4,4"/>
<g id="clust1" class="cluster">
<title>cluster_0</title>
<polygon fill="lightgrey" stroke="lightgrey" points="8,-8 8,-92 321.5,-92 321.5,-8 8,-8"/>
<text xml:space="preserve" text-anchor="middle" x="164.75" y="-74.7" font-family="Times,serif" font-size="14.00">Packages server</text>
</g>
<!-- testing\n repository -->
<g id="node1" class="node">
<title>testing\n repository</title>
<polygon fill="lightblue" stroke="black" points="110,-58.25 16,-58.25 16,-15.75 110,-15.75 110,-58.25"/>
<text xml:space="preserve" text-anchor="middle" x="63" y="-40.95" font-family="Times,serif" font-size="14.00">testing</text>
<text xml:space="preserve" text-anchor="middle" x="63" y="-23.7" font-family="Times,serif" font-size="14.00"> repository</text>
</g>
<!-- release\n repository -->
<g id="node2" class="node">
<title>release\n repository</title>
<polygon fill="lightblue" stroke="black" points="313.5,-58.25 219.5,-58.25 219.5,-15.75 313.5,-15.75 313.5,-58.25"/>
<text xml:space="preserve" text-anchor="middle" x="266.5" y="-40.95" font-family="Times,serif" font-size="14.00">release</text>
<text xml:space="preserve" text-anchor="middle" x="266.5" y="-23.7" font-family="Times,serif" font-size="14.00"> repository</text>
</g>
<!-- testing\n repository&#45;&gt;release\n repository -->
<g id="edge1" class="edge">
<title>testing\n repository&#45;&gt;release\n repository</title>
<path fill="none" stroke="black" d="M110.48,-37C139.44,-37 176.93,-37 207.78,-37"/>
<polygon fill="black" stroke="black" points="207.74,-40.5 217.74,-37 207.74,-33.5 207.74,-40.5"/>
<text xml:space="preserve" text-anchor="middle" x="164.75" y="-40.95" font-family="Times,serif" font-size="14.00">promotion</text>
</g>
</g>
</svg>
