<?xml version="1.0" encoding="UTF-8" standalone="no"?>
<!DOCTYPE svg PUBLIC "-//W3C//DTD SVG 1.1//EN"
 "http://www.w3.org/Graphics/SVG/1.1/DTD/svg11.dtd">
<!-- Generated by graphviz version 14.1.2 (20260126.1125)
 -->
<!-- Title: game Pages: 1 -->
<svg width="230pt" height="260pt"
 viewBox="0.00 0.00 230.00 260.00" xmlns="http://www.w3.org/2000/svg" xmlns:xlink="http://www.w3.org/1999/xlink">
<g id="graph0" class="graph" transform="scale(1 1) rotate(0) translate(4 256)">
<title>game</title>
<polygon fill="white" stroke="none" points="-4,4 -4,-256 225.88,-256 225.88,4 -4,4"/>
<!-- game/1.0 -->
<g id="node1" class="node">
<title>game/1.0</title>
<polygon fill="lightgreen" stroke="black" points="82,-36 0,-36 0,0 82,0 82,-36"/>
<text xml:space="preserve" text-anchor="middle" x="41" y="-13.32" font-family="Times,serif" font-size="14.00">game/1.0</text>
</g>
<!-- engine/1.0 -->
<g id="node2" class="node">
<title>engine/1.0</title>
<polygon fill="lightskyblue" stroke="black" points="97.5,-108 6.5,-108 6.5,-72 97.5,-72 97.5,-108"/>
<text xml:space="preserve" text-anchor="middle" x="52" y="-85.33" font-family="Times,serif" font-size="14.00">engine/1.0</text>
</g>
<!-- game/1.0&#45;&gt;engine/1.0 -->
<g id="edge1" class="edge">
<title>game/1.0&#45;&gt;engine/1.0</title>
<path fill="none" stroke="black" d="M43.72,-36.3C44.88,-43.68 46.26,-52.48 47.56,-60.75"/>
<polygon fill="black" stroke="black" points="44.07,-61.07 49.08,-70.4 50.98,-59.98 44.07,-61.07"/>
</g>
<!-- mapviewer/1.0 -->
<g id="node6" class="node">
<title>mapviewer/1.0</title>
<polygon fill="lightgreen" stroke="black" points="221.88,-36 100.12,-36 100.12,0 221.88,0 221.88,-36"/>
<text xml:space="preserve" text-anchor="middle" x="161" y="-13.32" font-family="Times,serif" font-size="14.00">mapviewer/1.0</text>
</g>
<!-- game/1.0&#45;&gt;mapviewer/1.0 -->
<!-- ai/1.0 -->
<g id="node3" class="node">
<title>ai/1.0</title>
<polygon fill="lightskyblue" stroke="black" points="79.88,-180 24.12,-180 24.12,-144 79.88,-144 79.88,-180"/>
<text xml:space="preserve" text-anchor="middle" x="52" y="-157.32" font-family="Times,serif" font-size="14.00">ai/1.0</text>
</g>
<!-- engine/1.0&#45;&gt;ai/1.0 -->
<g id="edge2" class="edge">
<title>engine/1.0&#45;&gt;ai/1.0</title>
<path fill="none" stroke="black" d="M52,-108.3C52,-115.59 52,-124.27 52,-132.46"/>
<polygon fill="black" stroke="black" points="48.5,-132.38 52,-142.38 55.5,-132.38 48.5,-132.38"/>
</g>
<!-- graphics/1.0 -->
<g id="node5" class="node">
<title>graphics/1.0</title>
<polygon fill="lightskyblue" stroke="black" points="202.25,-180 97.75,-180 97.75,-144 202.25,-144 202.25,-180"/>
<text xml:space="preserve" text-anchor="middle" x="150" y="-157.32" font-family="Times,serif" font-size="14.00">graphics/1.0</text>
</g>
<!-- engine/1.0&#45;&gt;graphics/1.0 -->
<g id="edge4" class="edge">
<title>engine/1.0&#45;&gt;graphics/1.0</title>
<path fill="none" stroke="black" d="M76.48,-108.48C88.61,-117.15 103.45,-127.75 116.61,-137.15"/>
<polygon fill="black" stroke="black" points="114.43,-139.9 124.6,-142.86 118.5,-134.2 114.43,-139.9"/>
</g>
<!-- mathlib/1.0 -->
<g id="node4" class="node">
<title>mathlib/1.0</title>
<polygon fill="lightskyblue" stroke="black" points="149.88,-252 52.12,-252 52.12,-216 149.88,-216 149.88,-252"/>
<text xml:space="preserve" text-anchor="middle" x="101" y="-229.32" font-family="Times,serif" font-size="14.00">mathlib/1.0</text>
</g>
<!-- ai/1.0&#45;&gt;mathlib/1.0 -->
<g id="edge3" class="edge">
<title>ai/1.0&#45;&gt;mathlib/1.0</title>
<path fill="none" stroke="black" d="M64.11,-180.3C69.69,-188.27 76.43,-197.9 82.62,-206.74"/>
<polygon fill="black" stroke="black" points="79.56,-208.47 88.16,-214.66 85.29,-204.46 79.56,-208.47"/>
</g>
<!-- graphics/1.0&#45;&gt;mathlib/1.0 -->
<g id="edge5" class="edge">
<title>graphics/1.0&#45;&gt;mathlib/1.0</title>
<path fill="none" stroke="black" d="M137.89,-180.3C132.31,-188.27 125.57,-197.9 119.38,-206.74"/>
<polygon fill="black" stroke="black" points="116.71,-204.46 113.84,-214.66 122.44,-208.47 116.71,-204.46"/>
</g>
<!-- mapviewer/1.0&#45;&gt;graphics/1.0 -->
<g id="edge6" class="edge">
<title>mapviewer/1.0&#45;&gt;graphics/1.0</title>
<path fill="none" stroke="black" d="M159.65,-36.41C157.79,-60.39 154.43,-103.86 152.2,-132.58"/>
<polygon fill="black" stroke="black" points="148.73,-132.14 151.44,-142.38 155.7,-132.68 148.73,-132.14"/>
</g>
</g>
</svg>
