<?xml version="1.0" encoding="UTF-8" standalone="no"?>
<!DOCTYPE svg PUBLIC "-//W3C//DTD SVG 1.1//EN"
 "http://www.w3.org/Graphics/SVG/1.1/DTD/svg11.dtd">
<!-- Generated by graphviz version 14.1.2 (20260126.1125)
 -->
<!-- Title: lockfiles Pages: 1 -->
<svg width="240pt" height="133pt"
 viewBox="0.00 0.00 240.00 133.00" xmlns="http://www.w3.org/2000/svg" xmlns:xlink="http://www.w3.org/1999/xlink">
<g id="graph0" class="graph" transform="scale(1 1) rotate(0) translate(4 129.25)">
<title>lockfiles</title>
<polygon fill="white" stroke="none" points="-4,4 -4,-129.25 236.32,-129.25 236.32,4 -4,4"/>
<!-- engine/1.0 -->
<g id="node1" class="node">
<title>engine/1.0</title>
<polygon fill="lightskyblue" stroke="black" points="147.62,-36 56.62,-36 56.62,0 147.62,0 147.62,-36"/>
<text xml:space="preserve" text-anchor="middle" x="102.12" y="-13.32" font-family="Times,serif" font-size="14.00">engine/1.0</text>
</g>
<!-- matrix/1.0 -->
<g id="node2" class="node">
<title>matrix/1.0</title>
<polygon fill="lightskyblue" stroke="black" points="90.25,-125.25 0,-125.25 0,-89.25 90.25,-89.25 90.25,-125.25"/>
<text xml:space="preserve" text-anchor="middle" x="45.12" y="-102.58" font-family="Times,serif" font-size="14.00">matrix/1.0</text>
</g>
<!-- engine/1.0&#45;&gt;matrix/1.0 -->
<g id="edge1" class="edge">
<title>engine/1.0&#45;&gt;matrix/1.0</title>
<path fill="none" stroke="black" d="M90.86,-36.24C82.74,-48.67 71.64,-65.67 62.4,-79.81"/>
<polygon fill="black" stroke="black" points="59.73,-77.49 57.19,-87.78 65.59,-81.32 59.73,-77.49"/>
</g>
<!-- sound32/1.0 -->
<g id="node3" class="node">
<title>sound32/1.0</title>
<polygon fill="lightskyblue" stroke="black" points="212,-125.25 108.25,-125.25 108.25,-89.25 212,-89.25 212,-125.25"/>
<text xml:space="preserve" text-anchor="middle" x="160.12" y="-102.58" font-family="Times,serif" font-size="14.00">sound32/1.0</text>
</g>
<!-- engine/1.0&#45;&gt;sound32/1.0 -->
<g id="edge2" class="edge">
<title>engine/1.0&#45;&gt;sound32/1.0</title>
<path fill="none" stroke="black" d="M113.58,-36.24C121.85,-48.67 133.15,-65.67 142.55,-79.81"/>
<polygon fill="black" stroke="black" points="139.4,-81.4 147.85,-87.79 145.23,-77.52 139.4,-81.4"/>
<text xml:space="preserve" text-anchor="middle" x="184.32" y="-57.95" font-family="Times,serif" font-size="14.00">if arch==x86</text>
</g>
</g>
</svg>
